<?xml version="1.0" standalone="no"?>
<!DOCTYPE svg PUBLIC "-//W3C//DTD SVG 20010904//EN"
 "http://www.w3.org/TR/2001/REC-SVG-20010904/DTD/svg10.dtd">
<svg version="1.0" xmlns="http://www.w3.org/2000/svg"
 width="260.000000pt" height="260.000000pt" viewBox="0 0 260.000000 260.000000"
 preserveAspectRatio="xMidYMid meet">
<metadata>
Created by potrace 1.14, written by Peter Selinger 2001-2017
</metadata>
<g transform="translate(0.000000,260.000000) scale(0.100000,-0.100000)"
fill="#000000" stroke="none">
<path d="M1090 2406 c-143 -17 -225 -38 -316 -81 -142 -68 -260 -186 -327
-325 -30 -64 -38 -72 -160 -170 -120 -97 -196 -369 -184 -660 6 -129 32 -308
58 -388 45 -142 145 -257 290 -332 46 -24 109 -61 140 -82 156 -106 309 -149
539 -153 85 -1 193 -8 240 -15 120 -18 369 -8 479 19 213 54 363 172 470 372
21 41 49 108 61 149 13 41 38 109 56 150 53 120 67 195 61 345 -7 203 -54 319
-206 508 -64 79 -71 92 -71 132 0 73 -28 186 -65 261 -63 130 -192 221 -365
259 -103 23 -538 29 -700 11z m505 -10 c140 -5 248 -28 342 -71 75 -34 167
-125 202 -199 32 -68 61 -185 61 -243 l-1 -38 -21 30 c-49 70 -209 215 -308
281 -172 114 -385 208 -525 231 l-50 8 50 5 c28 3 66 4 85 3 19 -1 94 -4 165
-7z m-248 -30 c225 -48 513 -199 672 -353 63 -60 64 -62 21 -34 -54 35 -198
99 -290 129 -227 74 -466 86 -790 37 -135 -20 -198 -38 -290 -85 -41 -21 -86
-41 -99 -45 l-23 -7 18 32 c62 105 232 245 351 290 166 62 264 71 430 36z
m-502 -48 c-117 -60 -213 -147 -293 -266 -24 -34 -56 -69 -73 -77 l-30 -16 25
48 c74 148 213 268 376 329 60 22 58 14 -5 -18z m690 -179 c27 -5 12 -6 -45
-2 -47 3 -101 9 -120 14 -45 10 108 0 165 -12z m-152 -21 c26 -8 34 -14 25
-20 -22 -13 -79 -8 -178 17 l-95 25 105 -6 c58 -3 122 -10 143 -16z m-204 -14
c2 -2 -36 -4 -85 -3 -61 0 -83 3 -69 9 18 8 144 3 154 -6z m571 -30 c99 -24
253 -95 305 -139 24 -20 12 -17 -65 19 -52 25 -145 58 -206 75 -61 16 -139 41
-175 55 l-64 25 55 -6 c30 -3 98 -16 150 -29z m-695 6 c3 -6 -4 -10 -18 -10
-13 0 -45 -3 -71 -6 -30 -4 -46 -3 -46 4 0 6 8 13 18 15 33 9 111 7 117 -3z
m131 -18 c-10 -2 -22 0 -28 6 -6 6 0 7 19 4 21 -5 23 -7 9 -10z m299 8 c4 -6
-10 -10 -34 -10 -22 0 -43 5 -46 10 -4 6 10 10 34 10 22 0 43 -4 46 -10z m237
-66 c55 -35 138 -104 138 -116 0 -16 -42 2 -100 42 -30 20 -83 52 -117 69 -35
17 -63 34 -63 38 0 15 103 -8 142 -33z m-704 19 c-10 -2 -26 -2 -35 0 -10 3
-2 5 17 5 19 0 27 -2 18 -5z m397 -3 c17 -7 15 -9 -10 -8 -16 0 -43 4 -60 8
-29 7 -28 8 10 8 22 0 49 -3 60 -8z m-790 -30 c-27 -16 -54 -30 -58 -30 -15 0
47 47 68 53 41 10 39 6 -10 -23z m976 -6 c14 -7 31 -19 38 -28 10 -12 -92 36
-109 52 -8 7 43 -10 71 -24z m-286 -9 l50 -24 -40 6 c-22 3 -56 14 -75 24 -32
17 -33 18 -10 18 14 1 48 -10 75 -24z m174 4 c32 -7 63 -22 88 -45 l38 -34
-50 21 c-27 12 -75 32 -105 45 -60 25 -49 30 29 13z m428 -14 c85 -32 176 -83
242 -135 l51 -40 0 -131 0 -131 -49 99 c-70 138 -174 258 -301 345 -35 24 -21
22 57 -7z m-1112 -1 c-11 -9 -29 -20 -40 -26 -17 -9 -16 -6 4 16 14 14 32 26
40 26 13 -1 12 -4 -4 -16z m170 7 c-3 -5 -20 -13 -38 -16 -17 -4 -60 -22 -95
-40 -35 -18 -62 -29 -60 -23 5 15 90 58 145 73 27 7 49 14 51 14 2 1 1 -3 -3
-8z m910 -44 c140 -106 245 -248 300 -405 22 -64 25 -87 25 -219 -1 -141 -2
-151 -29 -208 -18 -37 -30 -54 -33 -45 -20 58 -49 216 -45 238 3 15 13 47 22
72 13 34 16 67 13 136 -3 81 -8 100 -41 167 -28 56 -53 89 -98 129 -171 151
-235 227 -114 135z m-1166 40 c-2 -2 -26 -23 -54 -47 l-50 -43 47 47 c26 25
50 46 54 46 4 0 5 -1 3 -3z m526 -18 c44 -12 135 -66 135 -80 0 -5 -11 -9 -23
-9 -13 0 -49 -9 -81 -20 -50 -17 -74 -18 -208 -13 l-151 6 34 28 c19 15 61 44
94 63 65 39 122 46 200 25z m-759 -8 c-3 -5 -16 -11 -28 -14 -22 -6 -22 -5 -4
8 22 17 40 20 32 6z m498 -32 c-32 -23 -74 -55 -92 -70 -40 -36 -76 -41 -46
-8 39 44 148 119 172 119 22 0 16 -6 -34 -41z m-459 -41 c-38 -40 -73 -77 -77
-83 -5 -5 -3 5 3 23 7 20 35 52 72 82 34 28 64 50 66 50 2 0 -27 -33 -64 -72z
m1011 14 c-5 -4 -106 46 -106 53 0 3 25 -7 55 -22 30 -15 53 -29 51 -31z m203
19 c-6 -2 -21 7 -33 19 l-21 23 33 -19 c18 -10 28 -20 21 -23z m-1029 21 c0
-4 -30 -39 -66 -77 -76 -80 -70 -55 7 29 51 56 59 63 59 48z m950 -18 c0 -2
-9 0 -20 6 -11 6 -20 13 -20 16 0 2 9 0 20 -6 11 -6 20 -13 20 -16z m-815 -45
c-52 -53 -101 -89 -120 -89 -10 0 23 55 47 77 26 24 108 73 123 73 5 0 -17
-27 -50 -61z m-410 4 c-27 -38 -27 -38 -20 -8 3 17 13 36 22 42 27 21 26 7 -2
-34z m-51 -39 c-9 -31 -35 -84 -61 -122 -39 -56 -81 -138 -142 -272 -10 -23
-11 -22 -5 10 14 75 56 206 91 276 31 64 107 164 125 164 3 0 0 -25 -8 -56z
m1326 31 c13 -14 21 -25 18 -25 -2 0 -15 11 -28 25 -13 14 -21 25 -18 25 2 0
15 -11 28 -25z m142 -44 c61 -66 117 -155 133 -211 3 -14 -15 13 -42 60 -30
53 -74 111 -116 153 -37 37 -61 67 -53 67 8 0 43 -31 78 -69z m-202 44 c17 -9
30 -17 30 -20 0 -7 -60 16 -66 26 -8 13 3 11 36 -6z m-1070 -39 c-17 -24 -44
-77 -61 -117 -69 -162 -72 -176 -77 -322 -2 -76 -8 -135 -11 -130 -11 12 -29
81 -37 139 -8 65 18 148 87 284 44 86 112 190 124 190 2 0 -9 -20 -25 -44z
m154 32 c-32 -57 -98 -148 -124 -173 -31 -28 -32 -29 -20 -5 7 14 27 45 43 70
46 66 127 153 101 108z m1149 1 c48 -22 133 -195 166 -340 27 -121 32 -149 22
-149 -5 0 -14 33 -20 74 -19 132 -74 259 -157 367 -48 63 -49 65 -11 48z
m-1377 -47 c-19 -26 -51 -81 -70 -122 -38 -79 -41 -81 -25 -11 9 42 41 91 98
154 36 40 35 33 -3 -21z m921 33 c1 -5 -12 -19 -30 -30 -28 -18 -38 -20 -79
-10 -25 5 -49 13 -53 16 -8 9 103 38 134 36 14 -1 26 -6 28 -12z m173 -21 c0
-2 -13 2 -30 11 -16 9 -30 18 -30 21 0 2 14 -2 30 -11 17 -9 30 -18 30 -21z
m-46 -27 c41 -49 42 -63 4 -54 -31 8 -93 88 -76 99 19 12 28 6 72 -45z m-406
17 l31 -6 -33 -23 c-18 -12 -64 -28 -102 -34 -92 -16 -182 -61 -243 -120 -36
-35 -47 -42 -41 -25 32 83 109 200 138 207 27 7 216 8 250 1z m332 -26 c20
-28 21 -30 4 -24 -10 4 -31 10 -46 13 -31 6 -34 13 -16 31 19 19 33 14 58 -20z
m595 -109 c39 -72 58 -177 45 -247 -5 -31 -10 -57 -10 -59 0 -2 -4 -3 -10 -3
-5 0 -10 13 -10 29 0 80 -45 232 -105 351 l-37 75 50 -49 c28 -26 62 -70 77
-97z m-1824 64 c-62 -125 -95 -264 -120 -503 l-8 -85 -2 95 c-2 192 52 412
129 520 33 46 33 36 1 -27z m555 -6 c-24 -35 -55 -99 -71 -143 -15 -43 -37
-103 -49 -133 l-21 -55 -3 45 c-5 79 94 308 146 339 39 22 38 6 -2 -53z m516
45 c15 -15 -80 -35 -129 -27 l-46 7 29 19 c24 16 39 19 84 14 30 -3 58 -9 62
-13z m331 -18 c31 -19 57 -38 57 -40 0 -4 -30 1 -72 13 -19 4 -65 63 -51 63 5
0 34 -16 66 -36z m88 24 c8 -7 27 -29 44 -48 25 -29 21 -27 -20 10 -27 25 -52
46 -54 48 -2 1 0 2 5 2 6 0 17 -6 25 -12z m49 -95 c0 -8 -9 0 -50 45 l-45 47
48 -45 c26 -24 47 -45 47 -47z m-1399 31 c-5 -16 -10 -21 -10 -12 -1 18 10 51
15 45 2 -1 -1 -16 -5 -33z m328 -8 c-11 -20 -22 -36 -24 -36 -9 0 16 64 27 71
21 13 20 3 -3 -35z m746 29 c24 -11 26 -14 10 -15 -11 0 -37 -7 -59 -15 -29
-10 -44 -11 -62 -3 -23 11 -23 12 -8 30 20 22 75 23 119 3z m-150 -5 c-3 -5
-11 -10 -16 -10 -6 0 -7 5 -4 10 3 6 11 10 16 10 6 0 7 -4 4 -10z m-267 -46
c-18 -26 -55 -65 -82 -88 -94 -79 -235 -292 -236 -356 0 -14 -5 -32 -11 -40
-7 -11 -9 28 -7 132 l4 147 38 55 c62 90 149 151 259 181 28 7 56 14 60 14 5
1 -7 -20 -25 -45z m152 36 c0 -5 -10 -10 -22 -10 -13 0 -44 -11 -70 -24 -48
-23 -51 -19 -15 22 15 16 32 22 64 22 24 0 43 -4 43 -10z m714 -60 c38 -70 26
-62 -18 12 -21 34 -31 56 -23 50 7 -6 26 -34 41 -62z m345 8 c32 -97 36 -172
16 -285 l-19 -98 -12 75 c-11 69 -19 370 -10 370 2 0 14 -28 25 -62z m96 -73
c67 -134 86 -208 92 -360 2 -71 0 -148 -5 -170 -8 -37 -9 -33 -16 55 -15 203
-60 397 -127 548 -42 96 -2 44 56 -73z m-1804 51 c-14 -36 -27 -59 -29 -51 -3
12 44 115 52 115 2 0 -8 -29 -23 -64z m110 -22 c-12 -44 -28 -104 -36 -134 -8
-30 -18 -86 -23 -125 l-9 -70 -26 55 c-15 30 -27 63 -27 72 0 38 124 297 136
285 3 -3 -4 -40 -15 -83z m888 31 c12 -31 21 -65 21 -77 0 -21 -2 -20 -32 9
-18 17 -55 45 -82 62 -52 33 -52 35 18 51 52 13 54 12 75 -45z m215 7 c24 -21
66 -110 66 -139 0 -13 -6 -23 -14 -23 -8 0 -18 10 -22 23 -13 41 -64 106 -109
138 -25 18 -45 36 -45 40 0 12 102 -21 124 -39z m-484 32 c0 -11 -42 -77 -63
-101 -15 -16 -32 -23 -59 -23 -36 0 -38 1 -27 21 6 12 29 41 51 65 30 32 48
44 69 44 16 0 29 -3 29 -6z m-130 -40 c-17 -20 -36 -46 -42 -58 -7 -16 -24
-25 -59 -32 -56 -12 -62 -3 -27 41 19 24 128 85 152 85 4 0 -6 -16 -24 -36z
m184 28 c2 -4 -9 -15 -25 -24 -32 -19 -35 -17 -17 12 13 20 33 26 42 12z m282
1 c18 -7 96 -162 88 -175 -10 -16 -24 -7 -24 15 -1 32 -37 107 -67 140 -28 28
-27 32 3 20z m-1285 -39 c-5 -16 -26 -88 -46 -161 -44 -159 -53 -267 -35 -424
15 -139 40 -225 83 -281 18 -24 48 -69 67 -102 69 -115 199 -207 335 -237 65
-14 209 -99 169 -99 -44 0 -196 31 -276 56 -76 24 -89 32 -161 103 -159 153
-250 324 -292 544 -37 196 2 382 121 579 38 63 50 70 35 22z m1119 -30 c37
-34 107 -131 99 -138 -2 -2 -27 -14 -56 -26 l-51 -22 -54 44 c-29 24 -77 54
-105 66 -60 26 -61 37 -5 75 94 64 102 64 172 1z m190 -29 c26 -53 26 -81 0
-88 -27 -7 -46 24 -53 88 -3 28 -9 59 -13 70 -13 37 44 -24 66 -70z m111 -24
c30 -46 30 -61 0 -61 -17 0 -23 11 -67 125 l-7 20 23 -20 c13 -11 36 -40 51
-64z m134 -6 c30 -52 41 -89 26 -84 -7 3 -32 42 -57 89 -40 74 -42 82 -19 60
15 -14 37 -43 50 -65z m-1320 -8 c-37 -81 -51 -97 -42 -48 6 30 66 135 73 128
2 -2 -12 -38 -31 -80z m1790 -110 c40 -161 60 -330 52 -446 -5 -72 -12 -97
-43 -159 -37 -72 -93 -137 -153 -174 l-31 -20 21 48 c19 43 23 76 30 259 8
213 10 228 49 370 15 56 22 111 23 182 1 66 4 97 10 87 5 -9 24 -75 42 -147z
m-1375 133 c0 -15 -46 -60 -62 -60 -6 0 3 16 22 35 37 38 40 40 40 25z m588
-64 c-2 -10 -11 -1 -26 27 l-23 42 27 -26 c14 -15 24 -34 22 -43z m-1226 -48
c-1 -57 -9 -159 -18 -227 -11 -80 -15 -162 -12 -230 l5 -106 -24 75 c-23 68
-24 86 -20 190 9 170 46 400 66 400 3 0 5 -46 3 -102z m739 70 c-7 -19 -91
-77 -113 -78 -4 0 -1 17 6 37 9 28 21 40 47 49 55 20 70 18 60 -8z m84 2 c-20
-23 -65 -27 -65 -7 0 21 11 27 48 27 34 0 35 0 17 -20z m26 -13 c-10 -9 -11
-8 -5 6 3 10 9 15 12 12 3 -3 0 -11 -7 -18z m102 -4 c15 -7 27 -15 27 -17 0
-1 -22 2 -50 8 -31 6 -50 15 -50 24 0 15 24 10 73 -15z m707 -18 c0 -5 -5 -3
-10 5 -5 8 -10 20 -10 25 0 6 5 3 10 -5 5 -8 10 -19 10 -25z m-1510 -12 c-11
-17 -11 -17 -6 0 3 10 6 24 7 30 0 9 2 9 5 0 3 -7 0 -20 -6 -30z m1375 17 c3
-5 1 -10 -4 -10 -6 0 -11 5 -11 10 0 6 2 10 4 10 3 0 8 -4 11 -10z m-920 -37
c-4 -25 -21 -53 -50 -83 -24 -25 -55 -65 -69 -90 -23 -39 -26 -42 -26 -19 0
14 9 53 21 87 16 47 31 71 66 102 25 22 50 40 56 40 5 0 6 -15 2 -37z m226
-39 c-11 -56 -22 -74 -48 -74 -17 0 -16 8 2 61 19 54 47 98 52 82 2 -6 -1 -38
-6 -69z m-41 63 c0 -1 -9 -27 -20 -57 -15 -42 -20 -49 -21 -30 -5 59 4 90 26
90 8 0 15 -1 15 -3z m177 -13 c26 -9 63 -25 81 -36 l33 -20 -38 -24 c-32 -20
-52 -23 -122 -24 -81 0 -83 1 -78 23 3 12 9 39 12 60 6 32 11 37 36 37 15 0
50 -7 76 -16z m427 -60 c17 -65 21 -144 9 -144 -5 0 -23 35 -40 78 -32 76 -35
117 -9 134 16 11 23 -1 40 -68z m44 68 c20 -13 25 -73 11 -122 l-12 -45 -12
51 c-25 104 -27 124 -13 124 7 0 19 -4 26 -8z m-118 -18 c0 -8 -4 -12 -10 -9
-5 3 -10 10 -10 16 0 5 5 9 10 9 6 0 10 -7 10 -16z m175 -171 c0 -176 -1 -180
-25 -211 -14 -17 -29 -31 -33 -31 -5 -1 -7 47 -6 107 2 85 6 115 22 147 15 28
21 60 21 108 0 42 4 66 11 64 6 -3 10 -67 10 -184z m-765 123 c0 -30 3 -61 6
-69 4 -11 -5 -19 -31 -27 -19 -6 -49 -23 -65 -37 l-30 -25 0 69 c0 76 7 91 60
122 53 32 60 28 60 -33z m562 26 c15 -26 15 -29 -2 -52 -21 -28 -23 -28 -36
20 -18 62 8 84 38 32z m273 -65 c17 -70 16 -73 -4 -128 -20 -54 -60 -119 -47
-76 3 10 6 82 6 159 0 121 2 139 14 129 8 -7 22 -45 31 -84z m-350 46 c-3 -16
-13 -39 -22 -52 l-16 -24 -28 34 -28 34 37 17 c55 25 65 23 57 -9z m374 -11
c0 -24 -1 -25 -9 -7 -12 28 -12 47 0 40 6 -3 10 -18 9 -33z m518 16 c-3 -8 -6
-5 -6 6 -1 11 2 17 5 13 3 -3 4 -12 1 -19z m-1947 -48 l-11 -25 6 25 c2 14 5
34 6 45 2 19 2 19 6 0 2 -12 -1 -32 -7 -45z m1980 -92 c10 -83 1 -207 -20
-273 -7 -23 -8 -18 -2 20 9 64 9 265 0 330 -5 34 -4 43 2 27 5 -12 14 -59 20
-104z m-1026 87 c22 -33 20 -36 -11 -30 -16 4 -39 8 -52 11 l-24 5 29 19 c38
24 39 24 58 -5z m126 0 c0 -16 -6 -25 -15 -25 -18 0 -18 5 -5 31 14 26 20 24
20 -6z m-888 -112 c2 -45 1 -80 -1 -78 -12 12 -20 108 -14 155 8 60 11 47 15
-77z m984 96 c8 -17 22 -49 30 -71 l14 -39 -35 -15 c-66 -27 -75 -22 -75 47 0
50 4 66 23 85 12 13 23 24 24 24 1 0 10 -14 19 -31z m352 -40 c4 -81 -14 -70
-24 15 -6 48 -5 58 7 54 10 -3 15 -25 17 -69z m-1467 -1 c28 -55 34 -80 44
-188 7 -69 11 -126 10 -127 -5 -7 -85 71 -110 107 -28 41 -28 41 -17 117 11
71 32 153 38 153 1 0 17 -28 35 -62z m369 -18 c0 -63 -5 -91 -25 -137 -26 -57
-51 -93 -66 -93 -4 0 -16 24 -25 54 -16 52 -16 56 2 100 20 48 94 156 107 156
4 0 7 -36 7 -80z m-277 -35 l6 -70 -19 25 c-12 14 -18 34 -15 45 3 11 5 38 5
60 1 62 16 22 23 -60z m637 65 c-16 -12 -34 -17 -50 -14 -85 19 -81 34 8 34
l67 0 -25 -20z m-507 -57 c-2 -38 -9 -95 -15 -128 -10 -50 -13 -56 -19 -35
-13 46 -9 97 11 164 12 36 22 66 24 66 2 0 2 -30 -1 -67z m690 48 c19 -7 17
-10 -24 -34 l-45 -26 -58 21 -58 22 24 18 c19 15 33 18 81 13 32 -3 68 -10 80
-14z m486 -46 c1 -23 -2 -26 -9 -15 -5 8 -9 31 -9 50 0 29 2 31 9 15 5 -11 9
-33 9 -50z m-369 0 c0 -71 -20 -73 -41 -5 -16 51 -13 58 24 59 14 1 17 -8 17
-54z m-500 13 c0 -13 3 -40 6 -60 5 -31 4 -38 -9 -38 -9 0 -37 -7 -63 -16 -50
-17 -64 -11 -64 28 0 16 105 108 123 108 4 0 7 -10 7 -22z m70 -25 l0 -48 -18
30 c-33 54 -34 65 -7 65 23 0 25 -4 25 -47z m77 32 c2 -1 -11 -14 -27 -30
l-30 -29 0 37 c0 36 1 37 28 31 15 -4 28 -8 29 -9z m123 -45 c0 -8 -49 -20
-145 -36 l-30 -5 42 40 41 40 46 -15 c25 -9 46 -20 46 -24z m159 9 l11 -31
-38 7 c-52 10 -55 14 -30 35 32 27 44 25 57 -11z m-1087 -138 c2 -39 1 -65 -3
-58 -11 18 -39 162 -39 194 1 56 38 -63 42 -136z m1648 76 c0 -61 -33 -224
-60 -297 -11 -30 -18 -44 -16 -30 6 31 19 117 43 277 17 121 33 143 33 50z
m-320 31 c0 -19 -2 -20 -10 -8 -13 19 -13 30 0 30 6 0 10 -10 10 -22z m144
-135 c-29 -74 -94 -196 -100 -190 -3 2 0 15 5 29 5 14 15 54 21 89 7 35 31
101 54 146 l41 83 3 -45 c2 -30 -5 -65 -24 -112z m-414 122 c40 -11 45 -15 48
-44 4 -39 -25 -131 -44 -138 -16 -6 -162 48 -219 82 -22 13 -51 34 -64 48
l-23 26 38 6 c22 4 71 15 109 24 39 10 79 16 90 13 11 -3 40 -11 65 -17z
m-350 -6 c0 -5 -4 -9 -10 -9 -5 0 -10 7 -10 16 0 8 5 12 10 9 6 -3 10 -10 10
-16z m596 -25 c4 -28 2 -62 -5 -86 -13 -43 -74 -115 -115 -138 -59 -31 -68 30
-28 178 15 55 20 62 42 62 14 1 39 7 55 15 43 19 43 19 51 -31z m-1362 -151
c34 -136 91 -247 175 -344 51 -59 42 -60 -64 -9 -80 39 -119 96 -140 204 -16
82 -20 240 -8 297 7 31 8 29 15 -28 3 -35 13 -89 22 -120z m312 62 c8 -27 25
-74 36 -103 23 -58 19 -70 -15 -55 -18 8 -29 31 -49 99 -15 49 -29 107 -33
129 l-5 40 25 -30 c14 -16 32 -52 41 -80z m894 85 c0 -11 -4 -20 -10 -20 -5 0
-10 9 -10 20 0 11 5 20 10 20 6 0 10 -9 10 -20z m-630 -19 c0 -19 -17 -38 -25
-29 -7 7 7 48 16 48 5 0 9 -9 9 -19z m124 -54 c-25 -34 -47 -64 -49 -65 -4 -5
-30 45 -39 75 -6 20 -1 24 56 41 35 11 66 18 70 16 4 -3 -13 -33 -38 -67z
m104 36 c6 -20 10 -39 8 -41 -8 -7 -47 58 -41 68 11 19 22 10 33 -27z m941
-56 c6 -35 11 -74 11 -87 0 -27 -91 -199 -120 -225 -25 -23 -25 -24 9 60 33
82 61 187 68 262 3 29 9 53 13 53 5 0 13 -28 19 -63z m-1662 -14 c-2 -16 -4
-5 -4 22 0 28 2 40 4 28 2 -13 2 -35 0 -50z m772 -58 c21 -28 54 -65 74 -82
20 -17 33 -34 30 -37 -4 -3 -35 -6 -70 -6 -48 0 -76 6 -112 24 -44 23 -111 86
-111 105 0 4 19 34 41 66 l42 58 34 -39 c18 -22 51 -62 72 -89z m150 30 l100
-37 -16 -24 c-8 -13 -17 -24 -19 -24 -2 0 -51 21 -108 46 -97 42 -106 48 -120
85 -21 53 -22 53 24 20 21 -15 84 -45 139 -66z m570 -20 c-17 -36 -34 -63 -36
-61 -3 2 9 37 26 77 17 41 32 80 32 89 1 8 4 3 6 -12 3 -18 -7 -52 -28 -93z
m-1140 9 c-21 -25 -37 4 -31 56 l5 45 19 -43 c16 -35 17 -46 7 -58z m177 33
l26 -53 -22 -36 c-20 -34 -23 -36 -46 -26 -30 14 -38 44 -29 106 6 43 18 61
38 62 4 0 19 -24 33 -53z m-589 21 c-3 -8 -6 -5 -6 6 -1 11 2 17 5 13 3 -3 4
-12 1 -19z m-187 -247 c33 -84 100 -199 162 -276 31 -39 25 -34 -29 21 -84 87
-126 156 -169 282 -26 76 -34 112 -33 167 l0 70 20 -94 c11 -52 33 -128 49
-170z m1980 187 c-23 -65 -40 -93 -40 -67 0 18 53 140 58 134 3 -3 -5 -33 -18
-67z m-1555 -118 c4 -25 14 -60 21 -79 8 -19 12 -36 10 -38 -2 -2 -20 10 -40
27 -37 33 -111 170 -122 226 -6 31 -5 30 59 -30 56 -52 66 -67 72 -106z m261
92 c-13 -12 -18 9 -10 45 l8 38 4 -39 c2 -21 1 -41 -2 -44z m864 44 c0 -32
-125 -133 -153 -123 -7 2 2 11 19 20 36 19 99 86 109 116 8 27 25 18 25 -13z
m-1353 2 c-3 -8 -6 -5 -6 6 -1 11 2 17 5 13 3 -3 4 -12 1 -19z m348 -76 c-5
-5 -18 26 -29 68 -3 14 3 5 14 -19 11 -24 18 -46 15 -49z m1054 36 c-14 -61
-40 -141 -52 -156 -13 -16 -116 -78 -144 -86 -45 -14 -12 24 47 54 68 34 95
68 110 136 11 53 29 94 41 94 4 0 3 -19 -2 -42z m-1353 -105 c-5 -5 -46 103
-46 120 1 7 12 -17 26 -52 13 -35 22 -66 20 -68z m11 90 c-3 -10 -5 -4 -5 12
0 17 2 24 5 18 2 -7 2 -21 0 -30z m393 -17 c0 -18 -2 -18 -25 4 -19 18 -22 26
-14 37 10 11 14 10 25 -4 7 -10 14 -27 14 -37z m683 39 c-3 -9 -8 -14 -10 -11
-3 3 -2 9 2 15 9 16 15 13 8 -4z m-178 -44 l60 -27 -27 -18 c-26 -17 -30 -17
-50 -2 -32 22 -50 38 -73 65 l-20 24 25 -8 c14 -4 52 -20 85 -34z m596 16
c-10 -9 -11 -8 -5 6 3 10 9 15 12 12 3 -3 0 -11 -7 -18z m250 -157 c-15 -137
-56 -215 -131 -247 -45 -19 -201 -73 -213 -73 -4 0 25 26 65 58 132 106 195
193 214 295 3 21 20 64 38 95 l31 57 3 -48 c2 -26 -1 -88 -7 -137z m-1091 72
c8 -7 -76 7 -105 18 -25 10 -25 10 -10 41 l16 30 47 -42 c26 -23 49 -45 52
-47z m404 44 c-4 -16 -13 -26 -24 -26 -30 0 -34 20 -9 46 27 28 43 19 33 -20z
m225 -1 c-13 -45 -63 -97 -108 -113 -31 -11 -31 -11 -31 27 0 32 4 39 33 53
17 9 50 30 72 46 22 17 41 29 42 28 1 -1 -2 -20 -8 -41z m245 -18 c-16 -76
-61 -202 -78 -216 -7 -6 -39 -22 -72 -36 -34 -14 -49 -18 -34 -8 81 55 150
156 170 250 12 56 18 73 23 73 3 0 -1 -28 -9 -63z m-1517 11 c-3 -7 -5 -2 -5
12 0 14 2 19 5 13 2 -7 2 -19 0 -25z m423 6 c0 -8 -4 -12 -10 -9 -5 3 -10 13
-10 21 0 8 5 12 10 9 6 -3 10 -13 10 -21z m1030 -12 c-25 -45 -115 -153 -139
-166 -9 -6 8 17 37 50 29 32 67 80 84 107 38 57 48 62 18 9z m-1234 -48 c3
-13 3 -36 -1 -51 -8 -26 -9 -25 -26 27 -10 30 -18 64 -18 75 0 19 1 18 19 -4
11 -13 23 -34 26 -47z m864 56 c0 -5 -5 -10 -11 -10 -5 0 -7 5 -4 10 3 6 8 10
11 10 2 0 4 -4 4 -10z m-605 -30 c-8 -13 -35 0 -35 16 0 12 4 12 20 4 11 -6
18 -15 15 -20z m1175 6 c0 -8 -9 -24 -20 -37 l-20 -24 17 38 c18 40 23 45 23
23z m-1260 -38 c0 -26 -7 -22 -25 12 -16 30 -15 30 5 18 11 -7 20 -21 20 -30z
m590 38 c0 -2 -7 -7 -16 -10 -8 -3 -12 -2 -9 4 6 10 25 14 25 6z m119 -10 c-2
-2 -18 -7 -34 -10 l-30 -6 30 14 c26 12 46 14 34 2z m-426 -31 c67 -7 126 -11
132 -8 7 4 7 2 0 -4 -13 -14 -104 -33 -155 -33 -38 0 -160 46 -160 60 0 15 13
18 37 9 14 -5 80 -16 146 -24z m-347 -61 c23 -38 41 -71 39 -72 -20 -21 -122
104 -111 135 10 25 28 10 72 -63z m788 22 c-3 -13 -13 -27 -21 -31 -19 -7 -17
-8 -31 32 -10 30 -9 32 16 41 32 11 46 -5 36 -42z m-140 34 c19 -1 19 -3 -8
-25 -40 -32 -108 -50 -185 -48 -65 2 -115 23 -55 23 35 0 143 35 159 51 5 6
23 8 39 5 16 -3 38 -6 50 -6z m-544 -10 c0 -5 -2 -10 -4 -10 -3 0 -8 5 -11 10
-3 6 -1 10 4 10 6 0 11 -4 11 -10z m620 -51 c0 -12 -21 -22 -85 -38 -73 -18
-94 -20 -157 -11 -153 21 -338 66 -338 81 0 6 7 6 18 0 9 -5 40 -14 67 -19 28
-5 79 -17 115 -27 127 -34 277 -10 334 54 l20 22 13 -23 c7 -13 12 -30 13 -39z
m-683 12 c17 -40 -1 -32 -23 11 -12 22 -12 29 -3 26 7 -2 19 -19 26 -37z
m1073 -5 c-12 -20 -26 -36 -31 -36 -5 0 3 18 17 40 33 49 45 45 14 -4z m181
-31 c-20 -44 -127 -167 -163 -186 -10 -5 7 28 36 73 57 88 139 182 144 168 2
-5 -6 -30 -17 -55z m-1353 10 c18 -29 19 -35 6 -35 -32 0 -52 18 -47 45 7 33
14 32 41 -10z m1132 22 c0 -2 -10 -12 -22 -23 l-23 -19 19 23 c18 21 26 27 26
19z m-1200 -78 c0 -28 -16 -23 -43 14 -41 55 -41 60 2 32 24 -16 41 -36 41
-46z m415 37 c61 -14 120 -26 133 -26 12 0 22 -4 22 -10 0 -10 -108 -17 -203
-13 -60 3 -82 15 -96 54 -10 30 -10 31 12 26 12 -3 72 -17 132 -31z m-195 -2
c0 -8 -4 -12 -10 -9 -5 3 -10 13 -10 21 0 8 5 12 10 9 6 -3 10 -13 10 -21z
m669 -6 c-9 -16 -14 -19 -17 -9 -2 7 2 17 9 22 20 13 21 11 8 -13z m107 -3
c-11 -8 -25 -15 -30 -15 -6 1 0 7 14 15 32 19 40 18 16 0z m-152 -10 c-7 -17
-14 -18 -40 -8 -16 6 -16 7 2 14 31 12 44 10 38 -6z m821 -60 c-68 -183 -200
-332 -358 -406 -139 -65 -353 -96 -546 -79 -149 13 -159 19 -75 42 60 16 191
72 359 154 28 13 89 33 138 44 178 40 323 122 434 246 36 41 68 72 70 70 2 -2
-8 -34 -22 -71z m-488 37 c-14 -15 -41 -36 -59 -46 -31 -18 -30 -16 12 27 25
25 51 46 59 46 10 1 5 -9 -12 -27z m-1101 2 c58 -20 114 -69 114 -101 0 -28
-15 -29 -75 -3 -70 30 -105 58 -105 84 0 19 7 36 15 36 1 0 24 -7 51 -16z
m1029 -19 c-22 -20 -60 -49 -85 -66 l-45 -30 39 33 c22 18 56 48 75 65 20 18
41 33 46 33 6 0 -8 -16 -30 -35z m-1478 -127 l47 -53 -48 45 c-44 42 -106 132
-106 155 0 6 14 -13 31 -42 16 -29 51 -76 76 -105z m1438 132 c-10 -11 -23
-20 -28 -20 -6 0 -2 9 8 20 10 11 23 20 28 20 6 0 2 -9 -8 -20z m-285 -1 c-14
-6 -86 -12 -160 -14 -74 -3 -128 -2 -120 0 64 21 330 34 280 14z m503 -30
c-33 -56 -118 -161 -143 -178 -16 -10 -9 2 21 36 25 29 64 79 85 112 40 62 70
86 37 30z m-1083 5 c0 -14 -3 -14 -15 -4 -8 7 -15 14 -15 16 0 2 7 4 15 4 8 0
15 -7 15 -16z m700 5 c-24 -16 -123 -60 -127 -55 -7 7 101 65 122 65 17 1 18
-1 5 -10z m80 6 c0 -6 -85 -55 -95 -55 -10 0 76 58 88 59 4 1 7 -1 7 -4z
m-650 -40 c52 -35 118 -62 175 -71 l50 -8 -50 -7 c-27 -4 -75 -8 -105 -8 -54
-1 -57 1 -101 47 -25 26 -52 55 -59 66 -14 18 -13 18 20 11 19 -4 51 -17 70
-30z m-349 8 c13 -16 12 -17 -3 -4 -10 7 -18 15 -18 17 0 8 8 3 21 -13z m803
7 c-17 -17 -145 -40 -224 -40 -53 0 -87 6 -115 20 l-40 19 75 -5 c41 -3 111
-1 155 4 116 13 161 14 149 2z m-880 -135 c32 -20 81 -48 109 -62 36 -17 43
-23 22 -18 -92 19 -221 107 -278 190 -15 21 -5 15 35 -22 30 -28 81 -68 112
-88z m1080 122 c-2 -7 -14 -19 -27 -26 -21 -13 -21 -12 2 13 27 29 33 32 25
13z m226 -6 c0 -18 -150 -169 -183 -184 -50 -24 -127 -31 -165 -15 l-32 14 64
56 c54 46 77 59 133 73 37 9 91 27 118 40 57 27 65 29 65 16z m-1328 -34 c57
-19 72 -29 109 -76 l42 -53 -49 25 c-49 25 -174 112 -174 122 0 6 -7 8 72 -18z
m369 -35 c-19 -6 -41 6 -41 23 0 14 3 13 26 -2 15 -9 21 -19 15 -21z m404 28
c-11 -5 -33 -8 -50 -8 l-30 0 30 8 c17 4 39 8 50 8 l20 1 -20 -9z m220 -10
c-10 -11 -30 -20 -44 -19 -23 0 -22 2 14 19 51 24 51 24 30 0z m-232 -37 c-7
-2 -19 -2 -25 0 -7 3 -2 5 12 5 14 0 19 -2 13 -5z m82 -44 c-42 -17 -62 -19
-120 -12 l-70 7 100 12 c141 16 146 16 90 -7z m125 -10 c-39 -31 -53 -36 -80
-29 -22 5 -18 9 35 27 75 27 75 27 45 2z m495 13 c-16 -14 -92 -42 -158 -57
-84 -19 -58 -1 33 23 41 12 86 25 100 31 32 12 36 13 25 3z m-977 -44 c70 -13
104 -37 56 -39 -66 -4 -112 4 -161 26 -29 13 -53 27 -53 30 0 7 62 0 158 -17z
m-204 -8 c25 -12 46 -25 46 -30 0 -6 -2 -10 -5 -10 -12 0 -84 40 -90 50 -9 14
-4 13 49 -10z m409 13 c-13 -2 -35 -2 -50 0 -16 2 -5 4 22 4 28 0 40 -2 28 -4z
m181 -19 c28 -11 9 -20 -34 -16 -29 3 -38 7 -29 13 16 10 41 11 63 3z m-474
-34 c12 -8 9 -10 -12 -10 -15 0 -30 5 -33 10 -8 13 25 13 45 0z m400 -9 c21
-6 22 -8 8 -13 -31 -12 -212 -19 -243 -10 -27 8 -23 10 40 16 39 4 75 9 80 11
17 6 89 3 115 -4z m-467 -22 c26 -14 91 -69 81 -69 -9 0 -124 70 -124 76 0 8
21 4 43 -7z m692 2 c-34 -30 -189 -58 -240 -43 l-30 9 40 11 c82 23 247 39
230 23z m-424 -33 c44 -10 49 -13 28 -18 -23 -6 -156 14 -167 25 -10 10 87 5
139 -7z m-103 -36 c-22 -3 -88 21 -88 32 0 2 26 -4 58 -13 45 -13 51 -17 30
-19z m229 12 c-3 -3 -12 -4 -19 -1 -8 3 -5 6 6 6 11 1 17 -2 13 -5z m-522 -28
c33 -8 105 -20 160 -26 88 -10 245 -53 245 -68 0 -10 -205 8 -269 23 -72 17
-186 61 -216 82 l-20 15 20 -6 c11 -3 47 -12 80 -20z m485 -7 c-65 -11 -160
-11 -160 1 0 6 40 10 103 9 84 -1 94 -3 57 -10z m187 5 c-3 -3 -12 -4 -19 -1
-8 3 -5 6 6 6 11 1 17 -2 13 -5z m-44 -11 c-7 -2 -19 -2 -25 0 -7 3 -2 5 12 5
14 0 19 -2 13 -5z m-50 -10 c-7 -2 -21 -2 -30 0 -10 3 -4 5 12 5 17 0 24 -2
18 -5z m104 -4 c-10 -6 -60 -21 -112 -34 l-95 -24 -71 22 -71 22 118 -3 c79
-2 138 2 174 12 68 17 80 18 57 5z"/>
</g>
</svg>
