<?xml version="1.0" encoding="UTF-8"?><svg id="Layer_1" xmlns="http://www.w3.org/2000/svg" width="597.45" height="1505.49" viewBox="0 0 597.45 1505.49"><path d="m524.41,619.31c-.16.45-.73,2.17-.97,2.91.33-1.48.81-2.57.97-2.91Zm-145.74,118c2.49.15,11.92-.03,16.06.02,6.65.09,12.4.17,19.07-.74,4.48-.62,8.22-1.66,15.7-3.74,5.96-1.66,11.9-3.34,19.44-6.36,5.99-2.4,10.01-4.01,14.95-7.1,3.79-2.38,5.96-4.27,8.21-6.29h2.42c.71-.11,1.68-.27,2.83-.44,10.55-1.61,18.01-1.7,21.68-2.24,8.27-1.23,15.89-2.79,22.81-4.49l7.47-2.24,5.24-1.5,2.8-2.99v-4.98l1.72-.14c-.01-.16-.03-.32-.04-.48-.81-10.29-.19-12.29-1.49-21.69-1.68-12.03-4.35-20.63-5.99-25.79-2.49-7.89-3.74-11.84-5.6-14.21-.8-1-2.11-2.48-2.62-4.86-.35-1.64-.22-3.25.06-4.57-.02.03-.03.05-.05.06.01-.04.04-.14.09-.28-.02.07-.03.14-.04.22.37-.68,2.74-5.25,1.06-8.14-1.17-2.01-3.19-1.25-6.35-4.11-.64-.58-2.2-2.08-3.37-4.48-1.64-3.38-1.53-6.47-1.49-7.11.1-2.04.58-2.16.74-4.86.15-2.32.22-3.55-.37-4.86-1.07-2.38-2.94-1.83-4.48-4.11-1.16-1.71-.3-2.3-1.13-7.85-.58-3.89-1.21-5.04-.37-6.35.86-1.35,2.02-.92,3.74-2.25,3.23-2.51,3.46-7.44,3.36-7.47-.09-.03-1.18,3.82-1.49,3.73-.3-.07.45-3.5,1.12-10.09.13-1.29.31-3.18,0-5.61-.18-1.41-.36-2.7-1.12-4.11-1.09-2-2.03-1.78-2.99-3.36-.36-.58-.74-1.45-.38-8.23.21-3.88.39-4.52.75-5.23.92-1.8,1.98-1.96,3.74-3.74,1.71-1.73,2.51-3.52,4.11-7.1,1.54-3.45,2.34-5.24,2.62-7.85.28-2.69-.31-3.26-.38-7.48,0,0-.04-2.72.38-6.73.95-9.15,6.04-27.26,8.22-35.51,2.79-10.57,1.91-9.07,4.86-20.19,3.19-12,6.15-20.58,7.1-23.92,9.54-33.41,14.31-50.11,16.45-69.91,2.53-23.3.82-39.56,0-45.98-1.06-8.39-1.98-15.65-5.23-25.05-7.22-20.88-19.57-33.95-25.42-40-5.21-5.39-11.74-12.05-22.43-17.94-5.45-3.01-12.37-5.1-18.69-6.58-5.97-1.39-11.41-2.24-14.58-2.77-2.42-.3-5.94-.52-10.1,0-6.69.85-11.9,3.25-20.18,8.23-8.44,5.06-15.31,9.19-24.3,16.82-8.92,7.58-14.57,14.06-20.56,20.93-2.67,3.07-11.61,13.46-21.68,28.41-1.71,2.53-2.92,4.42-4.12,6.31-2.36,3.76-4.64,7.56-10.46,16.5-5,7.66-9.18,20.51-11.96,24.58,0,0-.01,0-.01.01-1.07,1.33-2.19,2.72-3.36,4.19-6.56,8.24-11.14,14.27-16.08,21.69-3.79,5.7-6.84,10.78-8.98,14.68-2.66,4.82-3.93,7.86-3.54,8.12.53.35,3.02-5.09,9.35-8.04,4.07-1.9,7.75-1.83,13.27-1.68,3.49.1,9.65.31,17.57,2.8,7.03,2.21,11.42,4.97,20.19,10.47,6.82,4.28,13.16,8.26,20.56,15.14,5.47,5.09,8.96,9.38,13.64,15.14,4.66,5.74,7.03,8.68,8.6,12.34,2.97,6.92,2.8,13.61,2.19,18.08-1.05.97-2.2,2.03-3.5,3.23-43.27,39.88-51.73,45.95-57.01,49.53-17.57,11.93-27.17,14.91-32.71,16.26-7.05,1.71-12.67,2.02-23.36,2.62-6.02.33-12.8.44-20.38-1.87-3.37-1.03-5.82-2.21-8.03-4.12-3.6-3.08-5.11-6.8-5.99-9.15-3.22-8.66-3.68-14.48-5.42-22.43-.67-3.09-1.25-5.17-1.9-7.2l-.34.09c-7.72,21.09-13.37,40.21-17.55,56.62-.25.98-.5,1.95-.74,2.91-1.59,6.41-2.96,12.37-4.14,17.86-7,32.57-7.52,49.07-7.48,58.31.06,11.83.12,26.22,4.86,44.12,2.71,10.23,4.49,12.31,7.85,26.16,3.1,12.77,5.11,21.02,5.99,32.53.6,7.96.53,15.69,3.73,26.91.96,3.35,1.93,10.92,2.62,12.71,3.7,1.39,7.99,2.81,12.82,4.09,7.28,1.92,15.78,3.51,25.31,4.14,16.49,1.08,29.04-1.19,36.64-2.62,16.27-3.06,27.88-7.75,38.13-11.96,2.72-1.11,5.2-2.18,7.85-3.39h.01Z" stroke-width="0"/><path d="m253.92,71.92c-.52,3.09-1.17,7.08-.5,12.46.25,1.96,1.01,6.83,3.74,12.46,3.31,6.81,7.65,10.89,10.97,13.95,2.73,2.53,7.9,6.8,15.45,10.22,5.84,2.65,11.12,3.88,14.95,4.49l1.98-.03c-.02-.84-.01-1.68.02-2.53.08-2.35.35-4.8.56-6.73.3-2.8.47-4.24.93-6.16.53-2.19,1.14-3.74,1.87-5.61.98-2.49,1.22-2.66,2.99-6.73,1.13-2.59,1.75-4,2.43-5.98.72-2.08,1.2-3.83,1.5-5.05l1.89-1.6c-.46-.11-.93-.22-1.41-.34-4.56-1.11-9.84-2.63-15.75-4.85-10.39-3.9-16.92-6.34-22.43-10.22-1.1-.77-4.64-3.35-9.97-5.23-2.48-.88-3.69-1.63-4.75-1.63-.24,0-.48.04-.73.13-2.32.87-2.95,4.35-3.74,8.98Z" stroke-width="0"/><path d="m257.62,61.93l.77.88c1.06,0,2.27.75,4.75,1.63,5.33,1.88,8.87,4.46,9.97,5.23,5.51,3.88,12.04,6.32,22.43,10.22,5.91,2.22,11.19,3.74,15.75,4.85.48.12.95.23,1.41.34,3.23.76,6.08,1.32,8.51,1.79,5.7,1.1,16.34,2.88,29.91,3.24,6.28.16,11.63,0,15.7-.25l1.98-2.24c-3.7-1.87-7.94-3.97-12.7-6.23-12.96-6.17-20.07-10.02-30.65-13.46-2.41-.78-9.05-2.59-10.37-2.97l-13.31-.02c-19.08-1.81-26.91-2.74-29.65-3.24,0,0-4.66-.85-7.48-.75-.39.01-1.22.06-2.43.03-1.48-.04-1.76-.16-2.34-.09-.59.06-1.36.3-2.25,1.04Z" stroke-width="0"/><path d="m352.41,1188.41l-.29.14c-.01,1.3-.01,3.25,0,5.61.03,19.28.05,28.92.74,35.14,1.31,11.7,1.96,17.56,3.74,22.8.39,1.13,1.47,4.14,1.5,8.22.03,3.9-.91,6.83-1.5,8.6-1.8,5.45-3.13,9.49-4.47,13.09-1.24,3.35-2.49,6.33-4.13,9.71-6.53,13.51-7.11,11.22-8.22,15.71-1.73,7,.09,13.76,3.74,27.29,2.85,10.57,4.27,15.86,7.1,20.56,5,8.3,9.63,10.39,12.34,19.44,1.3,4.36.51,4.85,2.24,10.09,2.34,7.09,5.76,12.19,7.85,14.95,3.05,4.03,5.94,6.61,8.6,8.97,5.99,5.34,7.1,4.74,11.21,8.98,5.05,5.18,4.17,6.9,8.23,9.72,4.62,3.21,6.27,1.35,10.84,4.48,3.68,2.53,3.08,4.06,8.97,10.47,3.79,4.11,5.68,6.17,8.23,7.1,1.77.64,2.91.59,11.44-.74.74-.12,1.54-.25,2.39-.38,6.59-1.04,9.28-1.48,13.08-2.24.87-.17,1.65-.34,2.36-.49,3.85-.83,5.58-1.39,7.36-2.13,2.7-1.13,4.97-2.08,6.73-3.74,3.61-3.4,3.58-8.92,3.36-19.81-.21-11.03-1.52-8.37-1.86-19.44-.14-4.45-.04-8.23-2.62-11.59-1.28-1.66-2.47-2.24-3.74-4.48-1.81-3.21-1.85-6.37-1.87-7.86-.08-6.85-1.15-13.75-.37-20.56,1.18-10.4.16-22.76-1.87-47.47-.71-8.57-1.47-14.92-1.12-24.68.34-9.84,1.55-15.47,2.24-18.31,1.18-4.84,1.89-5.71,2.99-10.47,1.48-6.43,1.54-10.75,1.87-17.57.65-13.32,1.09-10.37,1.87-25.05.53-10.03.89-16.89.75-25.42-.42-24.87-4.54-28.02-5.24-51.21-.14-4.84-.1-9-1.87-14.58-2.17-6.85-4.77-8.56-6.73-16.45-1.18-4.78-1.4-8.87-1.49-10.84-.26-5.45-.43-8.87.37-13.46.68-3.86,1.52-5.64.38-7.48-1.3-2.08-3.34-1.33-5.61-3.73-2.63-2.78-2.62-6.67-2.62-7.48.01-2.39.76-4.09,2.25-7.48,1.6-3.65,2.39-4,2.99-6.35.54-2.19.36-3.85,0-6.73-1.19-9.51-1.75-12.61-1.87-17.2-.14-4.78.33-6.41.74-7.47,1.19-3.07,2.77-3.7,4.86-6.73,2.01-2.91,2.72-5.55,4.12-10.84.56-2.15.89-3.83,2.24-12.71,1.3-8.57,1.18-8.27,1.49-10.1,1.23-7.09,3.07-12.1,6.36-20.93,4.48-12.02,4.74-10.15,6.73-16.83,2.09-7.04.95-6.26,4.11-19.43,1.25-5.22,2.55-10,1.5-10.47-.8-.36-2.56,1.92-2.62,1.87,0-.14,2.85-3.18,5.61-6.2l-2.81-.16c-5.66-.42-12.41-1.41-19.81-3.55-4.07-1.18-7.76-2.53-11.03-3.92v-16.45l3.18-17.95,2.06-24.67,2.61-15.7,5.61-43.36,1.96-9.91,5.14-2.62c12.65,5.1,28.29,9.86,46.54,12.15,5.61.71,10.98,1.12,16.08,1.31l2.2.33c.46-3.02.91-6.3,1.35-9.86,2.87-22.94,4.3-34.41,2.99-44.86-1.35-10.76-3.55-15.36-4.82-30.92l-1.72.14v4.98l-2.8,2.99-5.24,1.5-7.47,2.24c-6.92,1.7-14.54,3.26-22.81,4.49-3.67.54-11.13.63-21.68,2.24-1.15.17-2.12.33-2.83.45h-2.42c-2.25,2.01-4.42,3.9-8.21,6.28-4.94,3.09-8.96,4.7-14.95,7.1-7.54,3.02-13.48,4.7-19.44,6.36-7.48,2.08-11.22,3.12-15.7,3.74-6.67.91-12.42.83-19.07.74-4.14-.05-13.57.13-16.06-.02h-.01c-2.65,1.21-5.13,2.28-7.85,3.39-10.25,4.21-21.86,8.9-38.13,11.96-7.6,1.43-20.15,3.7-36.64,2.62-9.53-.63-18.03-2.22-25.31-4.14l-.11.4c.57,2.83,1.45,7.12,2.62,12.34,1.47,6.6,2.62,11.2,2.99,12.71,2.8,11.57,3.37,23.19,3.74,29.16,1.39,22.43,5.08,48.29,7.1,62.42,3.76,26.26,6.57,35.68,7.69,45.41l2.85-.32c2.39,21.56,6.62,42.55,14.51,81.27,4.45,21.86,4.7,21.82,5.23,26.92,1.24,11.97.61,19.51-.03,30.75-.4,7.13-.8,15.75-.72,27.94.08,12,.12,18.01,1.12,24.67,2.39,15.86,7.5,27.67,13.09,40.37,4.41,10.02,4.3,8.26,12.68,24.96.91,1.8,1.91,3.81,3.02,6.07,2.42,4.9,4.34,8.89,5.9,12.2Z" stroke-width="0"/><path d="m314.35,337.43h-.01c.1.64.16,1.04.21,1.21,1.27,4.99,2.69,12.12,3.17,21.31l1.86,9.64c2.14-3.9,5.19-8.98,8.98-14.68,4.94-7.42,9.52-13.45,16.08-21.69,1.17-1.47,2.29-2.86,3.36-4.19,0-.01.01-.01.01-.01,2.78-4.07,6.96-16.92,11.96-24.58,5.82-8.94,8.1-12.74,10.46-16.5l-4.19-6.25c-2.56,1.1-8.17,4.28-11.51,6.25-4.53,2.68-7.86,5.26-9.72,6.78-2.05,1.68-6.46,5.33-10.84,10.84-4.57,5.76-4.95,8.32-11.21,18.69-2.76,4.58-7.05,10.9-8.61,13.18Z" stroke-width="0"/><path d="m316.81,64.96h-1.73c1.32.38,7.96,2.19,10.37,2.97,10.58,3.44,17.69,7.29,30.65,13.46,4.76,2.26,9,4.36,12.7,6.23,4.75,2.41,8.59,4.44,11.48,5.98,10.74,5.7,25.88,13.66,33.14,17.94,2.69.16,4.03.24,5.24,1.12.78.56,1.26,1.3,1.77,2.43,2.53,1.74,8.81,6.69,12.93,9.91,8.42,6.57,14.27,12.2,19.94,17.69,4.24,4.11,12.01,11.92,18.07,18.57,10.81-31.89,11.05-70.12-4.45-99.94-3.1-5.96-6.81-11.5-11.9-15.5-10.35-8.81-22.06-16.62-36.63-22.47-7.23-2.3-14.9-2.83-22.48-2.64-15.85.39-28.66,4.91-42.67,12.33s-24.82,17.04-36.43,31.92Z" stroke-width="0"/><path d="m454.17,880.14v16.45c3.27,1.39,6.96,2.74,11.03,3.92,7.4,2.14,14.15,3.13,19.81,3.55l2.81.16c.5-.56,1.01-1.11,1.49-1.65,3.41-3.81,5.11-5.72,6.73-8.23,1.59-2.47,3.42-5.31,4.49-9.34,1.82-6.91-.63-9.66,2.24-13.83,1.35-1.97,3.49-3.67,2.99-4.49-.4-.67-2.22-.22-2.24-.37,0-.23,4.16-.45,7.85-2.25,1.02-.49,4.86-2.44,7.1-6.73,1.83-3.5,1.66-6.8,1.5-10.09-.18-3.48-1.02-6.27-1.5-7.85-.62-2.02-1.31-3.67-1.87-4.86,0,0,2.49-5.32,2.99-6.36,2.98-6.16,8.05-10.68,9.35-11.96,1.89-1.85,6.27-7.15,10.61-36.49l-2.2-.33c-5.1-.19-10.47-.6-16.08-1.31-18.25-2.29-33.89-7.05-46.54-12.15l-5.14,2.62-1.96,9.91-5.61,43.36-2.61,15.7-2.06,24.67-3.18,17.95Z" stroke-width="0"/><path d="m471.37,161.26c10.81-31.89,11.05-70.12-4.45-99.94-3.1-5.96-6.81-11.5-11.9-15.5-10.35-8.81-22.06-16.62-36.63-22.47-7.23-2.3-14.9-2.83-22.48-2.64-15.85.39-28.66,4.91-42.67,12.33s-24.82,17.04-36.43,31.92" fill="none" stroke="#1a171b" stroke-miterlimit="10" stroke-width="2"/><path d="m404.6,169.41c.71-.17,1.34-.32,1.35-.3,0,.05-3.49,1.22-7.85,2.24-2.29.54-4.22.89-5.61,1.13" fill="none" stroke="#1a171b" stroke-miterlimit="10" stroke-width="2"/><path d="m403.14,169.75c-.35.06-.56.09-.56.11.01.02.23-.03.56-.11Z" fill="none" stroke="#1a171b" stroke-miterlimit="10" stroke-width="2"/><path d="m403.14,169.75c.11-.02.24-.05.38-.08" fill="none" stroke="#1a171b" stroke-miterlimit="10" stroke-width="2"/><path d="m404.29,169.49c-.29.08-.55.14-.77.18" fill="none" stroke="#1a171b" stroke-miterlimit="10" stroke-width="2"/><path d="m404.29,169.49s.04-.01.06-.01c.08-.03.16-.05.23-.06,0,0,.01-.01.02-.01" fill="none" stroke="#1a171b" stroke-miterlimit="10" stroke-width="2"/><path d="m396.98,119.02c2.05-1.81,3.87-3.17,5.23-4.11,2.38-1.67,3.6-2.51,5.23-2.99,2.05-.62,3.71-.52,5.98-.38,2.69.16,4.03.24,5.24,1.12.78.56,1.26,1.3,1.77,2.43.26.57.52,1.25.84,2.06s1.04,2.72,1.87,6.73c.56,2.65.43,2.68,1.13,6.35.83,4.37,1.02,4.36,1.12,5.98.07,1.22.21,3.81-.75,6.73-.2.6-.58,1.65-2.62,4.86-3.62,5.72-4.48,5.69-6.35,9.35-1.05,2.04-1.22,2.92-2.62,5.23-1.18,1.94-1.84,3.05-2.99,4.11-1.79,1.67-3.94,2.5-5.46,2.92" fill="none" stroke="#1a171b" stroke-miterlimit="10" stroke-width="2"/><path d="m523.43,622.26c-.02.07-.03.14-.04.22-.28,1.32-.41,2.93-.06,4.57.51,2.38,1.82,3.86,2.62,4.86,1.86,2.37,3.11,6.32,5.6,14.21,1.64,5.16,4.31,13.76,5.99,25.79,1.3,9.4.68,11.4,1.49,21.69.01.16.03.32.04.48,1.27,15.56,3.47,20.16,4.82,30.92,1.31,10.45-.12,21.92-2.99,44.86-.44,3.56-.89,6.84-1.35,9.86-4.34,29.34-8.72,34.64-10.61,36.49-1.3,1.28-6.37,5.8-9.35,11.96-.5,1.04-2.99,6.36-2.99,6.36.56,1.19,1.25,2.84,1.87,4.86.48,1.58,1.32,4.37,1.5,7.85.16,3.29.33,6.59-1.5,10.09-2.24,4.29-6.08,6.24-7.1,6.73-3.69,1.8-7.85,2.02-7.85,2.25.02.15,1.84-.3,2.24.37.5.82-1.64,2.52-2.99,4.49-2.87,4.17-.42,6.92-2.24,13.83-1.07,4.03-2.9,6.87-4.49,9.34-1.62,2.51-3.32,4.42-6.73,8.23-.48.54-.99,1.09-1.49,1.65-2.76,3.02-5.61,6.06-5.61,6.2.06.05,1.82-2.23,2.62-1.87,1.05.47-.25,5.25-1.5,10.47-3.16,13.17-2.02,12.39-4.11,19.43-1.99,6.68-2.25,4.81-6.73,16.83-3.29,8.83-5.13,13.84-6.36,20.93-.31,1.83-.19,1.53-1.49,10.1-1.35,8.88-1.68,10.56-2.24,12.71-1.4,5.29-2.11,7.93-4.12,10.84-2.09,3.03-3.67,3.66-4.86,6.73-.41,1.06-.88,2.69-.74,7.47.12,4.59.68,7.69,1.87,17.2.36,2.88.54,4.54,0,6.73-.6,2.35-1.39,2.7-2.99,6.35-1.49,3.39-2.24,5.09-2.25,7.48,0,.81-.01,4.7,2.62,7.48,2.27,2.4,4.31,1.65,5.61,3.73,1.14,1.84.3,3.62-.38,7.48-.8,4.59-.63,8.01-.37,13.46.09,1.97.31,6.06,1.49,10.84,1.96,7.89,4.56,9.6,6.73,16.45,1.77,5.58,1.73,9.74,1.87,14.58.7,23.19,4.82,26.34,5.24,51.21.14,8.53-.22,15.39-.75,25.42-.78,14.68-1.22,11.73-1.87,25.05-.33,6.82-.39,11.14-1.87,17.57-1.1,4.76-1.81,5.63-2.99,10.47-.69,2.84-1.9,8.47-2.24,18.31-.35,9.76.41,16.11,1.12,24.68,2.03,24.71,3.05,37.07,1.87,47.47-.78,6.81.29,13.71.37,20.56.02,1.49.06,4.65,1.87,7.86,1.27,2.24,2.46,2.82,3.74,4.48,2.58,3.36,2.48,7.14,2.62,11.59.34,11.07,1.65,8.41,1.86,19.44.22,10.89.25,16.41-3.36,19.81-1.76,1.66-4.03,2.61-6.73,3.74-1.78.74-3.51,1.3-7.36,2.13-.71.15-1.49.32-2.36.49-3.8.76-6.49,1.2-13.08,2.24-.85.13-1.65.26-2.39.38-8.53,1.33-9.67,1.38-11.44.74-2.55-.93-4.44-2.99-8.23-7.1-5.89-6.41-5.29-7.94-8.97-10.47-4.57-3.13-6.22-1.27-10.84-4.48-4.06-2.82-3.18-4.54-8.23-9.72-4.11-4.24-5.22-3.64-11.21-8.98-2.66-2.36-5.55-4.94-8.6-8.97-2.09-2.76-5.51-7.86-7.85-14.95-1.73-5.24-.94-5.73-2.24-10.09-2.71-9.05-7.34-11.14-12.34-19.44-2.83-4.7-4.25-9.99-7.1-20.56-3.65-13.53-5.47-20.29-3.74-27.29,1.11-4.49,1.69-2.2,8.22-15.71,1.64-3.38,2.89-6.36,4.13-9.71,1.34-3.6,2.67-7.64,4.47-13.09.59-1.77,1.53-4.7,1.5-8.6-.03-4.08-1.11-7.09-1.5-8.22-1.78-5.24-2.43-11.1-3.74-22.8-.69-6.22-.71-15.86-.74-35.14-.01-2.36-.01-4.31,0-5.61" fill="none" stroke="#1a171b" stroke-miterlimit="10" stroke-width="2"/><path d="m524.41,619.31c-.16.34-.64,1.43-.97,2.91" fill="none" stroke="#1a171b" stroke-miterlimit="10" stroke-width="2"/><path d="m523.44,622.22c.24-.74.81-2.46.97-2.91.01-.03.02-.05.03-.07,0-.03.01-.04.01-.04" fill="none" stroke="#1a171b" stroke-miterlimit="10" stroke-width="2"/><path d="m523.44,622.22s-.01.04-.01.04" fill="none" stroke="#1a171b" stroke-miterlimit="10" stroke-width="2"/><path d="m523.34,622.54s.04-.14.09-.28" fill="none" stroke="#1a171b" stroke-miterlimit="10" stroke-width="2"/><path d="m471.37,207.24c3.17.53,8.61,1.38,14.58,2.77,6.32,1.48,13.24,3.57,18.69,6.58,10.69,5.89,17.22,12.55,22.43,17.94,5.85,6.05,18.2,19.12,25.42,40,3.25,9.4,4.17,16.66,5.23,25.05.82,6.42,2.53,22.68,0,45.98-2.14,19.8-6.91,36.5-16.45,69.91-.95,3.34-3.91,11.92-7.1,23.92-2.95,11.12-2.07,9.62-4.86,20.19-2.18,8.25-7.27,26.36-8.22,35.51-.42,4.01-.38,6.73-.38,6.73.07,4.22.66,4.79.38,7.48-.28,2.61-1.08,4.4-2.62,7.85-1.6,3.58-2.4,5.37-4.11,7.1-1.76,1.78-2.82,1.94-3.74,3.74-.36.71-.54,1.35-.75,5.23-.36,6.78.02,7.65.38,8.23.96,1.58,1.9,1.36,2.99,3.36.76,1.41.94,2.7,1.12,4.11.31,2.43.13,4.32,0,5.61-.67,6.59-1.42,10.02-1.12,10.09.31.09,1.4-3.76,1.49-3.73.1.03-.13,4.96-3.36,7.47-1.72,1.33-2.88.9-3.74,2.25-.84,1.31-.21,2.46.37,6.35.83,5.55-.03,6.14,1.13,7.85,1.54,2.28,3.41,1.73,4.48,4.11.59,1.31.52,2.54.37,4.86-.16,2.7-.64,2.82-.74,4.86-.04.64-.15,3.73,1.49,7.11,1.17,2.4,2.73,3.9,3.37,4.48,3.16,2.86,5.18,2.1,6.35,4.11,1.68,2.89-.69,7.46-1.06,8.14-.02.03-.03.05-.05.06-.01.02-.01.03-.01.03" fill="none" stroke="#1a171b" stroke-miterlimit="10" stroke-width="2"/><path d="m378.66,1252.1c-.46-4.1-1.43-10.18-3.74-17.2-3.12-9.46-6.9-15.24-10.47-21.31-5.4-9.18-4.44-9.06-12.04-25.18-1.56-3.31-3.48-7.3-5.9-12.2-1.11-2.26-2.11-4.27-3.02-6.07-8.38-16.7-8.27-14.94-12.68-24.96-5.59-12.7-10.7-24.51-13.09-40.37-1-6.66-1.04-12.67-1.12-24.67-.08-12.19.32-20.81.72-27.94.64-11.24,1.27-18.78.03-30.75-.53-5.1-.78-5.06-5.23-26.92-7.89-38.72-12.12-59.71-14.51-81.27h0c-.16-1.45-.31-2.89-.45-4.34-1.11-11.26-1.49-19.6-2.24-36.26-1.09-24.19-1.23-44.45-1.12-59.06" fill="none" stroke="#1a171b" stroke-miterlimit="10" stroke-width="2"/><path d="m317.32,1052.2c-1.25-1.98-5.57-5.13-7.07-9.07-3.28-8.59-3.19-15.45-3.37-22.81,0,0-.34-14.13-2.24-31.4-.72-6.57-1.71-15.3-4.11-26.54-1.62-7.58-2.32-8.97-3.37-14.95-2.04-11.7-1.87-20.67-1.87-23.93,0-3.71-.18-6.83-.53-9.92-1.12-9.73-3.93-19.15-7.69-45.41-2.02-14.13-5.71-39.99-7.1-62.42-.37-5.97-.94-17.59-3.74-29.16-.37-1.51-1.52-6.11-2.99-12.71-1.17-5.22-2.05-9.51-2.62-12.34" fill="none" stroke="#1a171b" stroke-miterlimit="10" stroke-width="2"/><path d="m474.23,713.16c.09-.01.19-.03.29-.05.71-.12,1.68-.28,2.83-.45,10.55-1.61,18.01-1.7,21.68-2.24,8.27-1.23,15.89-2.79,22.81-4.49l7.47-2.24,5.24-1.5,2.8-2.99v-4.98" fill="none" stroke="#1a171b" stroke-miterlimit="10" stroke-width="2"/><path d="m531.93,685c-14.05,3.42-25.24,7.86-33.27,11.59-9.92,4.59-15.04,6.96-21.31,11.96-2.15,1.71-3.72,3.16-5.25,4.55-2.25,2.02-4.42,3.91-8.21,6.29-4.94,3.09-8.96,4.7-14.95,7.1-7.54,3.02-13.48,4.7-19.44,6.36-7.48,2.08-11.22,3.12-15.7,3.74-6.67.91-12.42.83-19.07.74-4.14-.05-13.57.13-16.06-.02" fill="none" stroke="#1a171b" stroke-miterlimit="10" stroke-width="2"/><path d="m462.02,708.18c-4.26-.28-10.86-.36-18.69,1.12-9.13,1.72-15.67,4.75-19.06,6.35-26.5,12.51-36.97,17.76-45.6,21.66h-.01c-2.65,1.21-5.13,2.28-7.85,3.39-10.25,4.21-21.86,8.9-38.13,11.96-7.6,1.43-20.15,3.7-36.64,2.62-9.53-.63-18.03-2.22-25.31-4.14-4.83-1.28-9.12-2.7-12.82-4.09" fill="none" stroke="#1a171b" stroke-miterlimit="10" stroke-width="2"/><path d="m257.91,747.05c-.69-1.79-1.66-9.36-2.62-12.71-3.2-11.22-3.13-18.95-3.73-26.91-.88-11.51-2.89-19.76-5.99-32.53-3.36-13.85-5.14-15.93-7.85-26.16-4.74-17.9-4.8-32.29-4.86-44.12-.04-9.24.48-25.74,7.48-58.31,1.18-5.49,2.55-11.45,4.14-17.86.24-.96.49-1.93.74-2.91,4.18-16.41,9.83-35.53,17.55-56.62" fill="none" stroke="#1a171b" stroke-miterlimit="10" stroke-width="2"/><path d="m302.27,138.18c-.23.67-.55,1.56-.99,2.52-.83,1.77-1.72,2.98-2.43,3.93-2.02,2.68-3.22,3.25-6.36,6.35-2.83,2.79-4.76,4.72-6.35,7.85-1.26,2.46-1.57,4.22-1.69,5.23-.19,1.69-.45,4.06.94,5.99.95,1.31,2.34,1.96,3.74,2.61,1.03.49,1.46.52,3.73,1.5,1.66.71,2.22,1.03,2.62,1.68.6.98.43,2.08.37,2.43-.31,1.93-1.76,2.48-2.8,3.93-2.11,2.94-.88,7.3.37,11.77.49,1.72.85,2.97,1.87,4.3,1.03,1.33,1.7,1.45,2.43,2.8.26.48.4.88.94,3.93.62,3.55.56,3.77.93,4.67.43,1.06.97,2.36,2.25,3.37,1.07.85,1.72.74,2.05,1.49.33.76-.03,1.63-.75,3.37-.49,1.2-.72,1.42-1.12,2.43-.44,1.13-2.4,2.11-2.54,2.78" fill="none" stroke="#1a171b" stroke-miterlimit="10" stroke-width="2"/><path d="m302.27,138.18c.13.31.23.47.31.46.25-.02.34-1.64.19-1.68-.09,0-.24.48-.5,1.22Z" fill="none" stroke="#1a171b" stroke-miterlimit="10" stroke-width="2"/><path d="m310.81,86.68c-.3,1.22-.78,2.97-1.5,5.05-.68,1.98-1.3,3.39-2.43,5.98-1.77,4.07-2.01,4.24-2.99,6.73-.73,1.87-1.34,3.42-1.87,5.61-.46,1.92-.63,3.36-.93,6.16-.21,1.93-.48,4.38-.56,6.73-.03.85-.04,1.69-.02,2.53.09,5.85,1.14,11.16,1.76,12.71" fill="none" stroke="#1a171b" stroke-miterlimit="10" stroke-width="2"/><path d="m244.48,528.45c-2.88-4-8.07-13.08-12.18-20.09-4.08-6.96-10.71-19.22-17.94-39.44-3.31-9.26-8.49-25.07-13.08-47.29-4.24-20.5-11.78-64.88-13.84-85.04-.21-2.09-.93-9.48-4.67-17.95-2.26-5.11-4.66-8.45-5.61-9.72-2-2.68-5.47-7.21-11.59-10.84-4.6-2.73-8.62-3.71-9.53-3.92-2.61-.62-3.61-.5-13.77-.69-8.76-.16-7.66-.24-11.46-.25-9.32-.01-9.28.49-12.96,0-1.63-.21-4.83-.97-11.22-2.49-5.61-1.33-5.49-1.38-7.22-1.74-6.7-1.41-8.98-.8-14.71-1.5-3.42-.41-7.93-1.77-16.94-4.49-8.45-2.54-7.63-2.61-14.21-4.48-10.1-2.88-15.15-4.32-17.2-4.24-2.37.09-5.62.54-7.72-1.49-1.54-1.48-1.71-3.55-1.75-3.99-.02-.26-.3-4.39,2.5-5.73,1.55-.75,4.36-.46,4.91-.25" fill="none" stroke="#1a171b" stroke-miterlimit="10" stroke-width="2"/><path d="m434.36,733.22c-.01,1.38-.14,3.42-.75,5.8-.73,2.82-1.75,4.58-3.74,8.41-1.28,2.47-2.48,4.99-3.74,7.47-2.73,5.39-4.14,9.93-5.98,15.89-2.76,9.01-4.84,17.96-7.66,32.53-2.11,10.9-3.53,19.21-4.11,22.61-10.38,60.94-10.73,66.72-10.84,72.71-.23,12.36.77,15.46-.75,25.05-1.67,10.52-4.31,15.76-6.17,30.47-.34,2.71-.88,7.06-1.12,12.89-.37,9.14-.81,19.85,2.43,32.15,1.38,5.26,2.55,7.42,3.36,13.27.96,6.84.51,12.07.38,13.84-2.06,27.09,7,54.48,3.74,85.42-.43,4.07-1.51,12.3,2.43,20.93,2.12,4.66,3.79,5.24,6.91,10.84,1.25,2.25,3.37,6.44,6.73,20.94,2.05,8.85,2.45,12.4,5.05,25.98,1.42,7.44,1.7,8.47,3.55,17.75,2.77,13.91,9.65,49.31,7.48,66.92-.69,5.55-2.25,10.65-2.25,10.65-1.76,5.77-3.88,9.65-4.67,11.22-5.5,10.84-2.02,18.01-6.36,40.19-.79,4.06-2.16,10.93-5.04,19.62-5.01,15.1-7.52,22.65-8.79,25.42-1.34,2.94-3.08,6.43-2.43,10.84.29,1.94.98,3.7,4.49,9.16,1.84,2.87,4.45,6.74,7.85,11.22" fill="none" stroke="#1a171b" stroke-miterlimit="10" stroke-width="2"/><path d="m343.49,1170.14c-1.18,8.95-1.89,18.94-1.65,23.83.3,6.28-.74,12.63,0,18.88.1.91.43,3.39-.75,5.98-.84,1.82-1.85,2.46-2.81,3.74-2.01,2.71-1.96,5.92-1.86,9.34.47,16.45.73,24.72,2.05,27.1,1.61,2.9,2.56,3.18,8.6,12.34,1.44,2.19,4.3,9.44,5.06,10.66" fill="none" stroke="#1a171b" stroke-miterlimit="10" stroke-width="2"/><path d="m336.04,1384.06c-2.59-.51-6.55-.98-11.21-.19-3.36.57-5.03,1.45-8.41,2.43-5.25,1.53-9.34,1.78-14.02,2.06-2.94.18-11.39.52-22.25-1.68-7.66-1.56-16.03-3.26-25.04-9.16-6.93-4.54-13.36-8.27-16.26-16.26-.51-1.39-.85-2.75-1.08-4.07-1.08-6.24.55-11.38,1.08-12.94,2.25-6.77,8.28-15.64,15.14-15.7,2.71-.03,3.02,1.35,8.41,2.24,3.64.6,6.35.45,10.46.19,6.24-.4,11.37-1.4,14.96-2.25,6.45-1.52,5.32-1.94,12.89-3.92,5.79-1.51,9.56-2.08,16.08-4.3,3.16-1.08,5.35-1.99,7.48-3.93,2.08-1.89,2.26-3.1,3.92-4.11,1.64-.99,4.49-1.66,9.72.38" fill="none" stroke="#1a171b" stroke-miterlimit="10" stroke-width="2"/><path d="m379.78,1152.66c-4.03-2.17-9.23-4.39-15.51-5.79-8.84-1.98-15.73-1.44-17.2-1.31-3.86.34-7.06,1.05-9.35,1.68" fill="none" stroke="#1a171b" stroke-miterlimit="10" stroke-width="2"/><path d="m537.35,779.39c-5.1-.19-10.47-.6-16.08-1.31-18.25-2.29-33.89-7.05-46.54-12.15l-5.14,2.62-1.96,9.91-5.61,43.36-2.61,15.7-2.06,24.67-3.18,17.95v16.45c3.27,1.39,6.96,2.74,11.03,3.92,7.4,2.14,14.15,3.13,19.81,3.55" fill="none" stroke="#1a171b" stroke-miterlimit="10" stroke-width="2"/><path d="m423.52,755.56l-24.86-1.22-20-1.12s-10.28-1.49-11.22-1.68c-.93-.19-8.22-2.62-8.22-2.62" fill="none" stroke="#1a171b" stroke-miterlimit="10" stroke-width="2"/><path d="m319.59,369.67v-.08s-1.87-9.64-1.87-9.64c-.48-9.19-1.9-16.32-3.17-21.31-.05-.17-.11-.57-.21-1.21-.34-2.45-1.05-8.4-2.22-18.23-.12-.96-.33-2.97.74-4.86.68-1.18,1.47-1.61,3.37-3.17,0,0,2.16-1.78,4.3-3.93,2.5-2.52,3.73-5.12,4.67-7.1,2.25-4.76,2.73-8.99,2.99-11.59.77-7.55,1-13.41,1.18-18.01.04-1.11.08-2.14.13-3.11.33-7.37.66-14.66,2.43-23.93,2.05-10.73,3.84-12.66,3.55-18.5-.09-1.78-.42-5.01,1.12-8.6.9-2.08,1.56-2.27,2.81-5.05,1.06-2.35,2.11-4.7,1.87-7.66-.1-1.17-.39-4.55-2.81-5.98-1.43-.85-2.98-.64-5.05-.37-1.18.15-3.09.42-5.04,1.68-1.82,1.17-2.74,2.59-3.93,4.48-1.59,2.55-2.37,4.67-3.17,6.92-.8,2.21-1.9,5.35-2.43,9.53-.33,2.55-.11,2.85-.57,5.98-.22,1.57-.32,1.77-1.12,5.98-.64,3.42-.97,5.13-1.12,5.99-.63,3.57-.7,4.32-1.31,5.6-.06.15-.08.17-1.49,2.99-.17.33-2.26,7.53-2.43,7.85" fill="none" stroke="#1a171b" stroke-miterlimit="10" stroke-width="2"/><path d="m316.42,260.51c-1.6-1.23-3.8-3.21-5.61-6.17-2.41-3.92-1.54-5.31-4.11-12.14-1.88-4.98-3.03-8.04-5.05-11.41-.96-1.6-2.06-3.19-2.24-5.6-.07-.86.01-1.5.07-2.06v-.02c.07-.7.1-1.28-.26-2.04-.78-1.65-2.71-2.69-4.49-2.8-1.7-.11-2.96.66-3.74,1.12-.3.19-1.68,1.04-2.8,2.81-1.11,1.74-.67,2.35-1.87,4.85-.61,1.3-1.23,2.18-2.05,3.37-.87,1.24-1.85,2.66-3.18,3.92-1.99,1.9-3.99,2.74-6.36,3.74-4.19,1.77-5.06,1.16-6.54,2.62-1.74,1.71-.81,2.81-2.62,5.79-1.62,2.69-2.68,2.31-5.79,5.99-.82.96-2.33,2.77-3.74,5.42-1.66,3.11-1.25,3.78-2.8,6.16-1.66,2.56-2.43,2.26-3.93,4.68-.47.76-1.93,3.26-2.24,6.54-.15,1.52.01,2.66,1.5,8.04,1.15,4.16,1.8,6.15,2.99,10.28,1.3,4.54,1.96,6.84,2.05,8.03.29,3.71-.54,4.97.56,7.67.77,1.88,1.44,1.92,2.43,4.48s.5,2.98,1.5,4.49c.94,1.43,1.87,1.79,2.61,3.55.17.39.42,1.06.57,2.06.96,6.49-.38,12.89-.38,12.89-1.3,6.22.23,4.53-1.12,17.76-.33,3.2-.97,7.47-2.24,15.89-1.12,7.38-1.67,10.72-2.14,13.68-.2,1.3-.39,2.52-.6,4-.08.54-.16,1.13-.25,1.76-1.08,7.82-1.67,12.06-2.06,17.94-.57,8.61-1.11,17.62,1.12,28.79.35,1.74,1.04,4.27,2.43,9.34,3.89,14.22,5.65,18.44,7.07,22.9.65,2.03,1.23,4.11,1.9,7.2,1.74,7.95,2.2,13.77,5.42,22.43.88,2.35,2.39,6.07,5.99,9.15,2.21,1.91,4.66,3.09,8.03,4.12,7.58,2.31,14.36,2.2,20.38,1.87,10.69-.6,16.31-.91,23.36-2.62,5.54-1.35,15.14-4.33,32.71-16.26,5.28-3.58,13.74-9.65,57.01-49.53,1.3-1.2,2.45-2.26,3.5-3.23,2.7-2.51,4.77-4.43,6.97-6.49,2.96-2.78,9.92-9.34,25.04-23.93,12.76-12.3,15.13-14.7,20.57-18.32,5.23-3.48,6.26-3.4,11.21-7.1,7.95-5.95,13.31-12.15,16.82-16.26,3.34-3.91,5.56-6.96,8.23-10.66,5.34-7.4,9.38-13.83,12.15-18.5" fill="none" stroke="#1a171b" stroke-miterlimit="10" stroke-width="2"/><path d="m254.8,388.1c-6.23-11.94-12.02-26.48-15.77-34.5-6.65-14.28-10.16-21.85-14.02-32.9-3.34-9.58-2.67-9.53-5.6-17.01-1.31-3.32-5.75-14.34-14.21-27.48-4.68-7.26-7.1-10.96-11.03-13.83-6.59-4.82-13.97-6.25-17.38-6.91-4.76-.93-8.7-.94-11.4-.94-1.22,0-5.95.03-12.4,1.06-1.09.18-2.13.37-6.24,1.36-.76.18-1.63.39-2.63.63-1.18.28-2.53.62-4.09,1-10.21,2.53-11.04,2.82-13.96,3.24-1.23.18-2.82.4-4.76.56-1.91.17-4.16.26-6.7.19-.85-.02-1.42-.06-1.95-.11-1.35-.12-2.39-.32-7.02-.64-5.45-.37-6.59-.27-9.97-.75-1.19-.16-3.04-.52-6.73-1.24-4.33-.85-6.49-1.27-8.47-1.75-4.62-1.12-4.02-1.33-8.73-2.49-6.94-1.71-6.46-.81-9.72-1.99-.58-.21-2.28-.86-4.48-.75-1.69.08-2.63.55-2.99.75-.53.29-1.64.9-2.25,2.24-.59,1.31-.5,5.14-.39,5.59" fill="none" stroke="#1a171b" stroke-miterlimit="10" stroke-width="2"/><path d="m471.37,207.24c-2.42-.3-5.94-.52-10.1,0-6.69.85-11.9,3.25-20.18,8.23-8.44,5.06-15.31,9.19-24.3,16.82-8.92,7.58-14.57,14.06-20.56,20.93-2.67,3.07-11.61,13.46-21.68,28.41-1.71,2.53-2.92,4.42-4.12,6.31-2.36,3.76-4.64,7.56-10.46,16.5-5,7.66-9.18,20.51-11.96,24.58" fill="none" stroke="#1a171b" stroke-miterlimit="10" stroke-width="2"/><path d="m428.38,240.14c-15.17,12.48-26.12,23.82-33.27,31.77-9.17,10.21-8.32,10.7-29.16,35.52-5.75,6.85-10.9,12.86-17.94,21.59,0,0-.01,0-.01.01-1.07,1.33-2.19,2.72-3.36,4.19-6.56,8.24-11.14,14.27-16.08,21.69-3.79,5.7-6.84,10.78-8.98,14.68-2.66,4.82-3.93,7.86-3.54,8.12.53.35,3.02-5.09,9.35-8.04,4.07-1.9,7.75-1.83,13.27-1.68,3.49.1,9.65.31,17.57,2.8,7.03,2.21,11.42,4.97,20.19,10.47,6.82,4.28,13.16,8.26,20.56,15.14,5.47,5.09,8.96,9.38,13.64,15.14,4.66,5.74,7.03,8.68,8.6,12.34,2.97,6.92,2.8,13.61,2.19,18.08-.04.34-.09.67-.14.98" fill="none" stroke="#1a171b" stroke-miterlimit="10" stroke-width="2"/><polyline points="370.43 287.94 366.24 281.69 363.7 277.9" fill="none" stroke="#1a171b" stroke-miterlimit="10" stroke-width="2"/><path d="m366.24,281.69c-2.56,1.1-8.17,4.28-11.51,6.25-4.53,2.68-7.86,5.26-9.72,6.78-2.05,1.68-6.46,5.33-10.84,10.84-4.57,5.76-4.95,8.32-11.21,18.69-2.76,4.58-7.05,10.9-8.61,13.18" fill="none" stroke="#1a171b" stroke-miterlimit="10" stroke-width="2"/><path d="m316.04,377.71c-.7,1.97-1,7.95-3.18,11.21-2.16,3.25-3.78,4.56-6.72,8.23-1.54,1.91-3.69,4.78-5.99,8.6" fill="none" stroke="#1a171b" stroke-miterlimit="10" stroke-width="2"/><path d="m471.37,161.26c-6.06-6.65-13.83-14.46-18.07-18.57-5.67-5.49-11.52-11.12-19.94-17.69-4.12-3.22-10.4-8.17-12.93-9.91" fill="none" stroke="#1a171b" stroke-miterlimit="10" stroke-width="2"/><path d="m413.42,111.54c-7.26-4.28-22.4-12.24-33.14-17.94-2.89-1.54-6.73-3.57-11.48-5.98-3.7-1.87-7.94-3.97-12.7-6.23-12.96-6.17-20.07-10.02-30.65-13.46-2.41-.78-9.05-2.59-10.37-2.97" fill="none" stroke="#1a171b" stroke-miterlimit="10" stroke-width="2"/><path d="m366.82,89.86c-4.07.24-9.42.41-15.7.25-13.57-.36-24.21-2.14-29.91-3.24-2.43-.47-5.28-1.03-8.51-1.79-.46-.11-.93-.22-1.41-.34-4.56-1.11-9.84-2.63-15.75-4.85-10.39-3.9-16.92-6.34-22.43-10.22-1.1-.77-4.64-3.35-9.97-5.23-2.48-.88-3.69-1.63-4.75-1.63-.24,0-.48.04-.73.13-2.32.87-2.95,4.35-3.74,8.98-.52,3.09-1.17,7.08-.5,12.46.25,1.96,1.01,6.83,3.74,12.46,3.31,6.81,7.65,10.89,10.97,13.95,2.73,2.53,7.9,6.8,15.45,10.22,5.84,2.65,11.12,3.88,14.95,4.49" fill="none" stroke="#1a171b" stroke-miterlimit="10" stroke-width="2"/><path d="m316.81,64.96h-1.73l-13.31-.02c-19.08-1.81-26.91-2.74-29.65-3.24,0,0-4.66-.85-7.48-.75-.39.01-1.22.06-2.43.03-1.48-.04-1.76-.16-2.34-.09-.59.06-1.36.3-2.25,1.04-.29.25-.6.55-.92.92" fill="none" stroke="#1a171b" stroke-miterlimit="10" stroke-width="2"/><polyline points="388 237.52 379.41 251.35 367.07 267.43 363.7 277.9" fill="none" stroke="#1a171b" stroke-miterlimit="10" stroke-width="2"/><path d="m363.7,277.9c-1.6.32-6.15-.71-9.09-.88-4.01-.22-6.54-1.27-11.71-2.99-2.66-.88-8.63-2.13-13.53-3.49" fill="none" stroke="#1a171b" stroke-miterlimit="10" stroke-width="2"/><polyline points="540.78 745.06 531.06 742.19 516.85 740.32 494.17 737.38 471.99 734.34 454.17 731.79 446.57 730.61" fill="none" stroke="#1a171b" stroke-miterlimit="10" stroke-width="2"/><path d="m359.84,1375.09l-4.48,4.49-2.5,3.48-.99,5.43-1.44,5.04s-6.51,4.24-7.02,4.24-6.57-1.25-7.03,0c-.46,1.24-4.95,4.98-5.7,5.23-.74.25-5.48,3.24-6.73,3.74-1.24.5-4.98,2.49-6.23,2.74-1.24.25-8.97,3.93-8.97,3.93l-13.46,5.04-10.96,5.24s-10.97,2.24-11.96,2.49c-1,.25-8.23,2.24-8.23,2.24l-5.29,3.12c-2.48-.35-6.88-.63-11.97.93-2.78.86-7.33,2.26-10.65,6.36-3.81,4.71-3.77,10.24-3.74,14.76.01,1.45.13,5.43,1.7,10.43.71,2.28,1.72,4.77,3.16,7.33,4.05,7.22,9.32,11.13,14.58,14.95,8.54,6.21,16.17,9.03,22.24,11.22,2.72.98,16.15,5.71,34.39,6.73,3.73.2,9.23.49,16.45-.19,3.96-.37,9.1-1.42,19.26-3.36,7.84-1.51,11.76-2.26,16.26-3.37,8.02-1.98,9.87-2.95,15.7-3.92,2.33-.39,4.85-.71,13.08-1.12,14.1-.71,23.67-1.2,36.82-.94,3.92.08,5.67.17,8.6-.19,4.02-.49,12.66-1.54,18.51-7.85,2.77-2.99,4.14-6.33,4.3-6.73.26-.66.68-1.79,1.01-3.27.11-.49.21-1.02.29-1.59.36-2.36.23-4.17.19-4.86-.18-2.96-.22-8.56,0-18.87" fill="none" stroke="#1a171b" stroke-miterlimit="10" stroke-width="2"/><path d="m456.04,1472.78l-6.95,5.49-9.25,3.98s-12.71,2-13.71,2h-25.17l-22.18,1.99-9.47,1.5-25.9,5.48-16.71,4.49-13.46,1.74-13.71-1.49-18.19-4.99-19.69-6.85-16.45-10.84-6.23-6.73-2.99-4.74" fill="none" stroke="#1a171b" stroke-miterlimit="10" stroke-width="2"/><polyline points="440.84 1451.35 434.36 1455.84 428.38 1462.07 424.89 1468.05 420.9 1474.28 418.16 1481.63" fill="none" stroke="#1a171b" stroke-miterlimit="10" stroke-width="2"/><polyline points="237.76 1357.18 237.77 1357.19 262.9 1375.71 277.6 1379.7 290.31 1382.82 307.26 1382.82 318.72 1379.58 328.94 1377.58 339.12 1376.58 350.43 1377.58" fill="none" stroke="#1a171b" stroke-miterlimit="10" stroke-width="2"/><polyline points="471.37 161.26 471.37 176.96 476.6 194.16 485.95 210.01" fill="none" stroke="#1a171b" stroke-miterlimit="10" stroke-width="2"/><path d="m324.74,112.45c-6.36-3.32-14.99-1.37-19.31,4.36" fill="none" stroke="#1a171b" stroke-miterlimit="10" stroke-width="2"/><path d="m295.83,174.79c2.14.58,4.41.31,6.57-.13,1.37-.27,2.9-.75,3.46-2.03.33-.73.24-1.57.16-2.36-.1-.95-.21-1.89-.31-2.84" fill="none" stroke="#1a171b" stroke-miterlimit="10" stroke-width="2"/><path d="m303.91,195.69c-2.09,1.28-4.19,2.56-6.29,3.84" fill="none" stroke="#1a171b" stroke-miterlimit="10" stroke-width="2"/><path d="m121.31,289.24c-3.07-.72-7.51-1.66-12.93-2.5-3.76-.58-5.08-.66-11.22-1.49-6.9-.94-10.35-1.41-13.45-2-1.72-.32-8.35-1.62-16.7-4.23-4-1.25-6.97-2.36-7.98-2.74-3.24-1.23-5.51-2.22-8.97-3.74-9.4-4.13-7.45-3.89-10.22-4.74-1.54-.47-2.85-.76-3.98-1.99-.7-.76-1.31-1.85-1.57-2.99-.22-1.02-.18-2.08.32-2.99.87-1.59,2.71-1.97,5.23-2.49,1.44-.3,3.46-.72,5.73,0,1.96.61,2.62,1.61,4.49,2.99.28.2.54.38.86.57.27.16.58.33.99.53,1.04.51,2.66,1.19,5.63,2.38,4.81,1.94,8.37,3.29,12.21,4.74,7.33,2.78,7.53,2.87,8.72,3.24,3.69,1.14,3.82.91,10.22,2.74,2.87.82,3.51,1.06,4.98,1.25,2.7.33,3.94-.04,7.23,0,1.4.01,3.46.11,5.98.5" fill="none" stroke="#1a171b" stroke-miterlimit="10" stroke-width="2"/><path d="m146.75,256.94s-2.06-1.12-2.09-1.13c-2.82-.87-5.1-1.53-6.62-1.96-3.1-.89-3.97-1.1-5.49-1.75-2.35-1.01-2.62-1.53-4.98-2.74-1.21-.62-4.02-2.04-7.73-2.74-3.42-.65-5.73-1.09-7.97.25-2.55,1.52-3.33,4.31-3.49,4.98-.21.84-.67,2.72.25,4.49.5.98,1.28,1.64,1.99,2.24.85.72,10.1,3.49,10.69,3.8" fill="none" stroke="#1a171b" stroke-miterlimit="10" stroke-width="2"/><path d="m374.92,1422.57l24.67,15.7-5.23,3.74h-7.1c-.38,0-2.62.74-3.74,0-1.12-.75-4.86-2.22-4.86-2.22l-6.73,2.55s-3.74-1.54-5.61,0c-1.87,1.53-4.86,4.52-4.86,4.52l-5.61,3.02-8.22,3.34-8.51,1.5h-9.43s-4.12,2.61-5.24,2.99c-1.12.37-7.47,2.99-7.47,2.99h-9.72s-7.11.37-8.23,0c-1.12-.38-7.47-5.24-7.47-5.24,0,0-3.69-4.86-3.9-7.1-.22-2.24.59-8.17,0-8.57s0-6.38,0-6.38l3.9-5.98,2.54-4.86,1.19-4.12" fill="none" stroke="#1a171b" stroke-miterlimit="10" stroke-width="2"/><path d="m355.48,1370l-9.69-3.13h-7.88s-4.86-.38-6.35,0c-1.5.37-11.59,1.48-11.59,1.48h-10.84l-19.07-11.17v-7.17l-2.66-6.32s-2.57-4.86-2.2-5.98c.37-1.13,2.2-5.61,2.2-5.61" fill="none" stroke="#1a171b" stroke-miterlimit="10" stroke-width="2"/><path d="m344.27,93.6c5.14,2.97,9.23,5.43,11.96,7.1,4.18,2.55,7.23,4.49,11.96,6.73,5.17,2.45,7.22,2.84,8.23,2.99,3.29.5,6.03.13,9.71-.37,1.86-.26,3.99-.67,8.23-1.5,1.56-.3,2.85-.56,3.74-.75" fill="none" stroke="#1a171b" stroke-miterlimit="10" stroke-width="2"/><path d="m422.77,153.04c-.6,4.49-1.7,8.03-2.62,10.46-1.46,3.87-2.7,5.54-3.36,6.36-1.54,1.89-3.11,3.02-4.11,3.74-3.92,2.79-5.91,2.49-7.85,4.86-1.23,1.48-1.68,3.11-1.87,4.11" fill="none" stroke="#1a171b" stroke-miterlimit="10" stroke-width="2"/><path d="m415.67,175.12c-.88,1.39-3.15,5.37-2.81,10.81.09,1.43.44,5.98,3.93,10.1.99,1.16,3.64,4.21,8.22,5.23.71.16,6.19,1.29,10.84-1.87,5.03-3.41,4.6-8.77,8.23-9.34.65-.11.86.04,6.35,2.61,5.76,2.7,6.29,2.9,7.48,3.74,1.39.99,3.34,2.62,5.23,5.23" fill="none" stroke="#1a171b" stroke-miterlimit="10" stroke-width="2"/><path d="m326.7,125c-.82-.55-3.13-1.92-6.36-1.87-3.01.05-5.15,1.31-5.98,1.87" fill="none" stroke="#1a171b" stroke-miterlimit="10" stroke-width="2"/><path d="m414.55,24.81c-2.96,1.11-6.25,2.57-9.72,4.49-6.28,3.48-10.58,7.06-12.34,8.6-4.92,4.28-7.91,8.14-10.84,11.96-2.34,3.04-4.08,5.64-11.59,17.94-3.1,5.08-5.66,9.33-7.48,12.34" fill="none" stroke="#1a171b" stroke-miterlimit="10" stroke-width="2"/><path d="m457.16,50.98c-.11,3.63-.51,8.99-1.87,15.33-2.02,9.46-5.06,15.82-7.85,22.05-3.26,7.29-7.76,17.94-12.71,31.78" fill="none" stroke="#1a171b" stroke-miterlimit="10" stroke-width="2"/><path d="m387.26,121.26c-3.38,4.23-7.9,11-10.47,20.19-.87,3.09-3.29,12.8.75,34.39,1.89,10.15,5.46,24.25,12.71,40.37" fill="none" stroke="#1a171b" stroke-miterlimit="10" stroke-width="2"/><path d="m357.35,107.06c.38,9.78-.44,18.13-1.5,24.67-1.8,11.16-2.71,16.74-6.72,22.43-4.98,7.04-9.41,6.98-18.7,15.7-5.83,5.48-9.7,10.79-11.96,14.2" fill="none" stroke="#1a171b" stroke-miterlimit="10" stroke-width="2"/><path d="m97.13,252.62c-17.66-11.81-26.16-35.74-19.9-56.04,1.65-5.35,4.53-10.75,9.54-13.25,6.63-3.31,14.54-.55,21.4,2.22,8.49,3.43,17.57,7.36,22.22,15.24,3.56,6.03,3.87,13.38,3.89,20.39.01,5.94-.25,12.25-3.6,17.15-4.42,6.46-12.85,8.6-20.59,9.77-13.74,2.06-30.13,1.52-38.41-9.64-8.6-11.6-3.61-28.17,3.59-40.68,1.41-2.45,2.92-4.89,5.02-6.78,3.47-3.13,8.22-4.46,12.88-4.85,10.72-.9,21.84,2.97,29.33,10.69,7.49,7.72,11.03,19.22,8.7,29.71-.69,3.11-1.9,6.17-3.98,8.58-4.21,4.87-11.13,6.28-17.55,6.77-5.5.42-11.03.38-16.52-.12-2.57-.23-5.22-.59-7.42-1.94-3.72-2.28-5.35-6.92-5.54-11.28-.4-8.71,4.53-17.79,12.64-20.99s18.74.9,21.48,9.18-4.65,18.51-13.3,17.47c-8.75-1.06-13.47-11.31-13.14-20.12.18-4.89,1.42-9.81,4.11-13.9,7.42-11.29,25.7-12.63,35.31-3.14s9.02,26.93-.59,36.42c-11.23,11.09-29.38,10.39-44.83,7.12-1.56-.33-3.2-.72-4.39-1.79-1.26-1.14-1.79-2.85-2.22-4.49-4.58-17.6-.53-39.39,15.31-48.33,12.85-7.26,30.67-3.06,39.66,8.64s8.75,29.32.19,41.34c-6.93,9.73-18.8,15.74-30.74,15.57-3.17-.05-6.48-.56-9.01-2.46-4.42-3.3-5.1-9.5-7.08-14.64-3.74-9.67-13-16.97-14.59-27.22-1.47-9.47,4.78-19.24,13.63-22.92,8.85-3.67,19.5-1.63,27.15,4.14,7.64,5.78,12.39,14.87,14.04,24.31.96,5.51.72,11.8-3.1,15.88-3.79,4.05-9.87,4.73-15.41,5.09-6.87.45-14.56.52-19.63-4.13-4.14-3.8-5.4-10.11-3.91-15.53,1.49-5.41,5.38-9.94,10.01-13.11,3.06-2.1,6.65-3.72,10.36-3.52,4.05.22,7.75,2.62,10.33,5.75,5.76,7,6.02,17.96.62,25.23-5.41,7.27-15.97,10.18-24.34,6.68-1.76-.74-3.43-1.72-4.86-2.98-2.15-1.89-3.75-4.38-4.58-7.11-3.16-10.37,7.09-21.88,17.9-21.08,10.81.8,19.15,12.18,17.92,22.95-.32,2.83-1.24,5.68-3.16,7.78-4.51,4.92-12.54,3.94-18.73,1.46-7.52-3.01-14.86-8.32-16.97-16.14-2.37-8.79,3.21-18.63,11.6-22.16s18.6-1.16,25.45,4.83c6.85,5.99,10.49,15.12,10.98,24.21.12,2.25.02,4.64-1.21,6.52-1.34,2.04-3.74,3.08-6.04,3.89-11.06,3.88-23.1,4.95-34.67,3.08-2.96-.48-6.02-1.2-8.33-3.12-1.78-1.47-2.96-3.53-3.95-5.61-6.72-14.23-4.19-33.6,8.84-42.42,5.31-3.6,11.74-5.16,18.1-5.98,6.83-.88,13.96-.96,20.42,1.45,11.13,4.15,18.75,15.79,18.98,27.67.23,11.88-6.51,23.43-16.49,29.87-9.98,6.44-22.81,7.88-34.27,4.74-3.38-.93-6.73-2.28-9.36-4.6-3.33-2.95-5.2-7.2-6.69-11.4-3.4-9.57-5.3-20.4-1.23-29.69,3.47-7.93,10.84-13.56,18.71-17.18,5.19-2.39,10.95-4.07,16.59-3.18,6.99,1.1,12.76,5.95,17.75,10.97,4.44,4.48,8.68,9.42,10.7,15.4,4.5,13.29-3.76,28.5-16.05,35.27-12.29,6.77-27.35,6.52-40.99,3.28-4.39-1.04-8.91-2.49-12.09-5.68-5.68-5.69-5.4-14.84-4.59-22.85,1.23-12.21,3.7-25.96,13.98-32.65,6.07-3.95,13.72-4.54,20.94-4.07,10.2.67,20.49,3.34,28.79,9.29,8.3,5.96,14.36,15.52,14.51,25.74.14,9.31-4.62,18.28-11.52,24.54-6.89,6.27-15.73,10.06-24.77,12.29-11.35,2.8-24.87,2.69-32.96-5.75-7.03-7.34-7.73-18.72-6.15-28.76,1.68-10.69,5.64-21.31,13.03-29.21s18.58-12.71,29.22-10.71c13.6,2.55,23.03,14.93,29.44,27.2,3.64,6.97,6.79,14.34,7.73,22.15.45,3.77.35,7.72-1.24,11.16-1.55,3.35-4.37,5.92-7.24,8.25-8.56,6.94-18.64,12.65-29.63,13.45-6.77.49-14.81-1.9-16.94-8.35-.86-2.6-.58-5.44-.07-8.13,2.41-12.58,10.06-24.06,20.73-31.13,5.08-3.36,10.99-5.79,17.09-5.7s12.35,3.04,15.35,8.34c4.26-7.83.71-18.62-6.94-23.21-7.65-4.58-18.14-3.08-24.89,2.75s-9.79,15.31-8.75,24.17c.69,5.85,3.5,11.99,8.91,14.29,7.88,3.36,16.69-2.99,21.13-10.32,3.19-5.27,5.2-11.93,2.71-17.56-3.28-7.4-13.12-9.79-20.91-7.6-6.04,1.7-11.62,5.8-14,11.61s-.93,13.27,4.14,16.97c2.81,2.05,6.35,2.82,9.38,4.53s5.69,5.11,4.66,8.44c-.37,1.19-1.16,2.2-2.05,3.06-6.73,6.59-19.35,4.79-24.56-3.06-3.57-5.37-3.73-12.8-.39-18.32,3.33-5.52,9.99-8.84,16.4-8.18,5.25.54,11.63,3.1,15.04-.93,1.19-1.4,1.61-3.33,1.54-5.17-.25-6.72-7.17-12.21-13.85-11.46s-12.09,7.07-12.38,13.79,4.14,13.22,10.26,16c4.68,2.13,10.95,2.99,12.69,7.83,1.25,3.48-.84,7.49-3.95,9.5-3.11,2.01-6.97,2.44-10.67,2.55-4.25.12-8.91-.28-12.01-3.2-3.59-3.39-3.84-8.93-3.84-13.87,0-3.67.12-7.69,2.54-10.44,4.01-4.57,11.38-2.89,17.02-.64,5.64,2.25,12.64,4.53,17.27.59,4.48-3.81,3.37-11.5-.74-15.7-4.11-4.21-10.13-5.8-15.87-7.1-10.25-2.31-21.98-3.94-30.42,2.32-6.67,4.95-9.43,13.68-10.1,21.96-.81,10.07,1.54,21.39,9.77,27.25,6.85,4.88,16.09,4.77,24.33,3.03,15.61-3.28,31.66-14.2,32.84-30.1.6-8.1-2.79-15.98-6.99-22.94-1.93-3.2-4.13-6.38-7.25-8.43-3.69-2.42-8.26-3.02-12.66-3.32-10.43-.71-20.95-.11-31.24,1.79-6.04,1.12-12.36,2.88-16.53,7.39-3.33,3.59-4.86,8.46-5.84,13.26-2.91,14.24-1.18,30.47,8.89,40.96,9.12,9.5,23.29,12.46,36.44,11.74,9.11-.5,18.44-2.68,25.63-8.29,14.21-11.08,15.75-33.9,5.5-48.72-10.24-14.82-29.59-21.64-47.53-19.96-6.5.61-13.18,2.35-18.03,6.72-3.48,3.14-5.75,7.4-7.36,11.8-4.29,11.7-4.16,25.07.91,36.46,5.07,11.39,15.15,20.56,27.14,23.97,15.45,4.41,33.12-1.35,43.6-13.54,10.47-12.19,13.59-30.04,8.59-45.32-1.88-5.73-4.88-11.21-9.35-15.27-3.66-3.32-8.19-5.59-12.91-7.08-15.22-4.81-32.81-1.29-45,9.02s-18.58,27.07-16.36,42.88c.7,4.96,2.25,9.93,5.38,13.85,3.22,4.02,7.88,6.65,12.67,8.57,14.93,6,33.67,5.23,45.25-5.94,9.72-9.38,12.52-23.92,12.14-37.42-.1-3.52-.42-7.18-2.21-10.22-2.11-3.59-5.94-5.77-9.59-7.78-9.41-5.18-20.27-10.53-30.45-7.08-8.7,2.95-14.21,11.66-16.86,20.45-4.43,14.68-.95,33.56,12.87,40.21,11.19,5.38,25.6,1.18,36.07,7.86-11.09,4.86-24.48,4.12-34.96-1.94-1.74-1.01-3.45-2.19-4.6-3.84-1.55-2.23-1.93-5.09-1.76-7.79.55-8.88,6.97-17.11,15.45-19.79,6.79-2.15,14.96-1.23,20.21-6.06,4.21-3.88,4.97-10.58,2.84-15.9s-6.65-9.36-11.61-12.22c-5.93-3.41-12.98-5.39-19.67-3.95-9.94,2.14-17.01,11.41-19.95,21.15-3.82,12.66-1.72,27.32,6.75,37.48,8.47,10.16,23.48,14.84,35.76,9.93,7.26-2.9,13.02-8.66,17.68-14.93,8.73-11.75,14-28.83,5.3-40.61-3.51-4.75-8.77-7.86-14.03-10.53-8.2-4.17-17.35-7.68-26.41-6.12-6.29,1.08-11.98,4.55-16.7,8.85-7.4,6.74-12.82,15.81-14.38,25.69-1.56,9.88.97,20.51,7.47,28.11,6.67,7.8,16.91,11.89,27.12,12.93,10.21,1.04,20.49-.7,30.51-2.92,9.02-2,18.38-4.64,25.01-11.08,9.79-9.52,10.9-25.96,4.15-37.83-6.74-11.87-20.03-19.15-33.6-20.68-11.13-1.26-23.06,1.25-31.43,8.69-13.6,12.1-13.17,36.48.85,48.09,9.61,7.95,23.52,9.53,35.43,5.81,6.96-2.17,13.59-6.2,17.54-12.33,2.66-4.13,3.99-9.04,4.27-13.95.98-16.88-11.56-33.55-28.05-37.3s-34.99,5.86-41.41,21.51c-6.42,15.65,0,35.48,14.38,44.39,7.38,4.58,16.23,6.35,24.92,6.46,10.83.13,22.19-2.49,30.13-9.86,12.34-11.47,12.71-32.42,3.06-46.23-9.65-13.81-27.15-20.72-44-20.62-5.68.03-11.47.81-16.55,3.34-7.61,3.8-12.88,11.19-16.23,19.02-6.27,14.66-6.35,32.63,2.75,45.72,9.95,14.31,28.95,20.16,46.3,18.52,5.23-.49,10.47-1.6,15.1-4.08,8.13-4.35,13.67-12.68,15.97-21.6,2.3-8.92,1.62-18.4-.44-27.38-1.86-8.1-5.04-16.25-11.15-21.88-8.6-7.92-21.15-9.4-32.8-10.31-13.88-1.08-30.14-.92-38.74,10.03-5.1,6.5-6.08,15.33-5.67,23.58.42,8.51,2.17,17.14,6.63,24.4,7.66,12.46,22.44,19.19,37.01,20.43,4.95.42,10.11.25,14.6-1.88,5.03-2.39,8.64-6.96,11.74-11.59,4.46-6.69,8.24-13.83,11.26-21.28,2.2-5.45,4.02-11.22,3.67-17.09-.71-11.91-10.11-21.51-20.16-27.93-8.6-5.49-18.34-9.61-28.54-10.12-10.2-.52-20.88,2.93-27.68,10.54-7.97,8.92-9.51,21.83-9.28,33.79.2,10.58,1.89,22,9.35,29.51,5.35,5.39,12.91,7.93,20.33,9.57,9.17,2.03,18.59,2.96,27.99,2.76,9.08-.19,19.71-2.54,23.36-10.86,1.5-3.42,1.5-7.27,1.47-11-.07-11.02-.14-22.04-.21-33.07-.05-8.44-.41-17.7-6.05-23.98-6.11-6.8-16.28-7.75-25.42-7.96-9.8-.23-20.02-.06-28.75,4.4-10.27,5.24-17.02,15.92-19.68,27.14-1.88,7.94-1.82,16.74,2.33,23.77,4.32,7.32,12.37,11.62,20.43,14.31,14.07,4.69,29.41,5.51,43.9,2.35" fill="none" stroke="#000" stroke-miterlimit="10" stroke-width="2"/></svg>