<?xml version="1.0" encoding="UTF-8"?><svg id="Layer_1" xmlns="http://www.w3.org/2000/svg" width="724.75" height="1538.06" viewBox="0 0 724.75 1538.06"><path d="m404.56,83.46c-.59.06-1.36.3-2.25,1.04l.77.88c1.06,0,2.27.75,4.75,1.63,5.33,1.88,8.87,4.46,9.97,5.23,5.51,3.88,12.04,6.32,22.43,10.22,5.91,2.22,11.19,3.74,15.75,4.85.48.12.95.23,1.41.34,3.23.76,6.08,1.32,8.51,1.79,5.7,1.1,16.34,2.88,29.91,3.24,6.28.16,11.63-.01,15.7-.25l1.98-2.24c-3.7-1.87-7.94-3.96-12.7-6.23-12.96-6.17-20.07-10.02-30.65-13.46-2.41-.78-9.04-2.59-10.36-2.97l-13.32-.02c-19.08-1.81-26.91-2.74-29.65-3.24,0,0-4.66-.85-7.48-.75-.39.01-1.22.06-2.43.03-1.48-.04-1.76-.16-2.34-.09Z" fill="#1a171b" stroke-width="0"/><path d="m669.1,641.88c-.16.45-.73,2.17-.97,2.91.33-1.48.81-2.57.97-2.91Zm-1.02,3.17c.37-.68,2.74-5.25,1.06-8.14-1.17-2.01-3.19-1.25-6.35-4.11-.64-.58-2.2-2.08-3.37-4.48-1.64-3.38-1.53-6.47-1.49-7.11.1-2.04.58-2.16.74-4.86.15-2.32.22-3.55-.37-4.86-1.07-2.38-2.94-1.83-4.48-4.11-1.16-1.71-.3-2.3-1.13-7.85-.58-3.89-1.21-5.04-.37-6.35.86-1.35,2.02-.92,3.74-2.25,3.23-2.51,3.46-7.44,3.36-7.47-.09-.03-1.18,3.82-1.49,3.73-.3-.07.45-3.5,1.12-10.09.13-1.29.31-3.18,0-5.61-.18-1.41-.36-2.7-1.12-4.11-1.09-2-2.03-1.78-2.99-3.36-.36-.58-.74-1.45-.38-8.23.21-3.88.39-4.52.75-5.23.92-1.8,1.98-1.96,3.74-3.74,1.71-1.73,2.51-3.52,4.11-7.1,1.54-3.45,2.34-5.24,2.62-7.85.28-2.69-.31-3.26-.38-7.48,0,0-.04-2.72.38-6.73.95-9.15,6.04-27.26,8.22-35.51,2.79-10.57,1.91-9.07,4.86-20.19,3.19-12,6.15-20.58,7.1-23.92,9.54-33.41,14.31-50.11,16.45-69.91,2.53-23.3.82-39.56,0-45.98-1.06-8.39-1.98-15.65-5.23-25.05-7.22-20.88-19.57-33.95-25.42-40-5.21-5.39-11.74-12.05-22.43-17.94-5.45-3.01-12.37-5.1-18.69-6.58-5.97-1.39-11.41-2.24-14.58-2.77-2.42-.3-5.94-.52-10.1,0-6.69.85-11.9,3.25-20.18,8.23-8.44,5.06-15.31,9.19-24.3,16.82-8.92,7.58-14.57,14.06-20.56,20.93-2.67,3.07-11.61,13.46-21.68,28.41-1.71,2.53-2.92,4.42-4.12,6.31-2.36,3.76-4.64,7.56-10.46,16.5-4.98,7.64-9.16,20.43-11.94,24.54-.01.02-.02.03-.03.05-1.08,1.33-2.19,2.72-3.36,4.19-6.56,8.24-11.14,14.27-16.08,21.69-3.79,5.7-6.84,10.78-8.98,14.68-2.66,4.82-3.93,7.86-3.54,8.12.53.35,3.02-5.09,9.35-8.04,4.07-1.9,7.75-1.83,13.27-1.68,3.49.1,9.65.31,17.57,2.8,7.03,2.21,11.42,4.97,20.19,10.47,6.82,4.28,13.16,8.26,20.56,15.14,5.47,5.09,8.96,9.38,13.64,15.14,4.66,5.74,7.03,8.68,8.6,12.34,2.97,6.92,2.8,13.61,2.19,18.08-1.05.97-2.2,2.03-3.5,3.23-43.27,39.88-51.73,45.95-57.01,49.53-17.57,11.93-27.17,14.91-32.71,16.26-7.05,1.71-12.67,2.02-23.36,2.62-6.02.33-12.8.44-20.38-1.87-3.37-1.03-5.82-2.21-8.03-4.12-3.6-3.08-5.11-6.8-5.99-9.15-3.22-8.66-3.68-14.48-5.42-22.43-.67-3.09-1.25-5.17-1.9-7.2l-.34.09c-7.72,21.09-13.37,40.21-17.55,56.62-.25.98-.49,1.95-.74,2.9-1.59,6.41-2.96,12.38-4.14,17.87-7,32.57-7.52,49.07-7.48,58.31.06,11.83.12,26.22,4.86,44.12,2.71,10.23,4.49,12.31,7.85,26.16,3.1,12.77,5.11,21.02,5.99,32.53.6,7.96.53,15.69,3.73,26.91.96,3.35,1.93,10.92,2.62,12.71,3.7,1.39,7.99,2.81,12.82,4.09,7.28,1.92,15.78,3.51,25.31,4.14,16.49,1.08,29.04-1.19,36.64-2.62,16.27-3.06,27.88-7.75,38.13-11.96,2.72-1.11,5.2-2.18,7.85-3.39h0c2.49.15,11.92-.03,16.06.02,6.65.09,12.4.17,19.07-.74,4.48-.62,8.22-1.66,15.7-3.74,5.96-1.66,11.9-3.34,19.44-6.36,5.99-2.4,10.01-4.01,14.95-7.1,3.79-2.38,5.96-4.27,8.21-6.29h2.42c.71-.11,1.68-.27,2.83-.44,10.55-1.61,18.01-1.7,21.68-2.24,8.27-1.23,15.89-2.79,22.81-4.49l7.47-2.24,5.24-1.5,2.8-2.99v-4.98l1.72-.14c-.01-.16-.03-.32-.04-.48-.81-10.29-.19-12.29-1.49-21.69-1.68-12.03-4.35-20.63-5.99-25.79-2.49-7.89-3.74-11.84-5.6-14.21-.8-1-2.11-2.48-2.62-4.86-.35-1.64-.22-3.25.06-4.57-.02.03-.03.05-.05.06.01-.04.04-.14.09-.28-.02.07-.03.14-.04.22Z" fill="#1a171b" stroke-width="0"/><path d="m428.27,143.58c5.84,2.65,11.12,3.88,14.95,4.49l1.98-.03c-.02-.84,0-1.68.02-2.53.08-2.35.35-4.8.56-6.73.3-2.8.47-4.24.93-6.16.53-2.19,1.14-3.74,1.87-5.61.98-2.49,1.22-2.66,2.99-6.73,1.13-2.59,1.75-4,2.43-5.98.72-2.08,1.2-3.83,1.5-5.05l1.89-1.6c-.46-.11-.93-.22-1.41-.34-4.56-1.11-9.84-2.63-15.75-4.85-10.39-3.9-16.92-6.34-22.43-10.22-1.1-.77-4.64-3.35-9.97-5.23-2.48-.88-3.69-1.63-4.75-1.63-.24,0-.48.04-.73.13-2.32.87-2.95,4.35-3.74,8.98-.52,3.09-1.17,7.08-.5,12.46.25,1.96,1.01,6.83,3.74,12.46,3.31,6.81,7.65,10.89,10.97,13.95,2.73,2.53,7.9,6.8,15.45,10.22Z" fill="#1a171b" stroke-width="0"/><path d="m459.24,361.21c1.27,4.99,2.69,12.12,3.17,21.31l1.86,9.64c2.14-3.9,5.19-8.98,8.98-14.68,4.94-7.42,9.52-13.45,16.08-21.69,1.17-1.47,2.28-2.86,3.36-4.19,0-.02.02-.03.03-.05,2.78-4.11,6.96-16.9,11.94-24.54,5.82-8.94,8.1-12.74,10.46-16.5l-4.19-6.25c-2.56,1.11-8.17,4.28-11.51,6.25-4.53,2.68-7.86,5.26-9.72,6.78-2.05,1.68-6.46,5.33-10.84,10.84-4.57,5.76-4.95,8.32-11.21,18.69-2.76,4.58-7.05,10.9-8.61,13.18h-.01c.1.64.16,1.04.21,1.21Z" fill="#1a171b" stroke-width="0"/><path d="m611.61,83.89c-3.1-5.96-6.81-11.5-11.9-15.5-10.35-8.81-22.06-16.62-36.63-22.47-7.23-2.3-14.9-2.83-22.48-2.64-15.85.39-28.66,4.91-42.67,12.33-14.01,7.42-24.82,17.04-36.43,31.92h-1.72c1.32.38,7.95,2.19,10.36,2.97,10.58,3.44,17.69,7.29,30.65,13.46,4.76,2.27,9,4.36,12.7,6.23,4.75,2.41,8.59,4.44,11.48,5.98,10.74,5.7,25.88,13.66,33.14,17.94,2.69.16,4.03.24,5.24,1.12.78.56,1.26,1.29,1.77,2.43,2.53,1.74,8.81,6.69,12.93,9.91,8.42,6.57,14.27,12.2,19.94,17.69,4.24,4.11,12.01,11.92,18.07,18.57,10.81-31.89,11.05-70.12-4.45-99.94Z" fill="#1a171b" stroke-width="0"/><path d="m682.04,721.77l-2.8,2.99-5.24,1.5-7.47,2.24c-6.92,1.7-14.54,3.26-22.81,4.49-3.67.54-11.13.63-21.68,2.24-1.15.17-2.12.33-2.83.45h-2.42c-2.25,2.01-4.42,3.9-8.21,6.28-4.94,3.09-8.96,4.7-14.95,7.1-7.54,3.02-13.48,4.7-19.44,6.36-7.48,2.08-11.22,3.12-15.7,3.74-6.67.91-12.42.83-19.07.74-4.14-.05-13.57.13-16.06-.02h0c-2.65,1.21-5.13,2.28-7.85,3.39-10.25,4.21-21.86,8.9-38.13,11.96-7.6,1.43-20.15,3.7-36.64,2.62-9.53-.63-18.03-2.22-25.31-4.14l-.11.4c.57,2.83,1.45,7.12,2.62,12.34,1.47,6.6,2.62,11.2,2.99,12.71,2.8,11.57,3.37,23.19,3.74,29.16,1.39,22.43,5.08,48.29,7.1,62.42,3.76,26.26,6.57,35.68,7.69,45.41l2.85-.32c2.39,21.56,6.62,42.55,14.51,81.27,4.45,21.86,4.7,21.82,5.23,26.92,1.24,11.97.61,19.51-.03,30.75-.4,7.13-.8,15.75-.72,27.94.08,12,.12,18.01,1.12,24.67,2.39,15.86,7.5,27.67,13.09,40.37,4.41,10.02,4.3,8.26,12.69,24.96h0c.9,1.8,1.9,3.81,3.01,6.07,2.42,4.9,4.34,8.89,5.9,12.2l-.29.14c-.01,1.3-.01,3.25,0,5.61.03,19.28.05,28.92.74,35.14,1.31,11.7,1.96,17.56,3.74,22.8.39,1.13,1.47,4.14,1.5,8.22.03,3.9-.91,6.83-1.5,8.6-1.8,5.45-3.13,9.49-4.46,13.09-1.25,3.36-2.5,6.33-4.14,9.71-6.53,13.51-7.11,11.22-8.22,15.71-1.73,7,.09,13.76,3.74,27.29,2.85,10.57,4.27,15.86,7.1,20.56,5,8.3,9.63,10.39,12.34,19.44,1.3,4.36.51,4.85,2.24,10.09,2.34,7.09,5.76,12.19,7.85,14.95,3.05,4.03,5.94,6.61,8.6,8.97,5.99,5.34,7.1,4.74,11.21,8.98,5.05,5.18,4.17,6.9,8.23,9.72,4.62,3.21,6.27,1.35,10.84,4.48,3.68,2.53,3.08,4.06,8.97,10.47,3.79,4.11,5.68,6.17,8.23,7.1,1.77.64,2.91.59,11.44-.74.74-.12,1.54-.25,2.39-.38,6.59-1.04,9.28-1.48,13.08-2.24.87-.17,1.65-.34,2.36-.49,3.85-.83,5.58-1.39,7.36-2.13,2.7-1.13,4.97-2.08,6.73-3.74,3.61-3.4,3.58-8.92,3.36-19.81-.21-11.03-1.52-8.37-1.86-19.44-.14-4.45-.04-8.23-2.62-11.59-1.28-1.66-2.47-2.24-3.74-4.48-1.81-3.21-1.85-6.37-1.87-7.86-.08-6.85-1.15-13.75-.37-20.56,1.18-10.4.16-22.76-1.87-47.47-.71-8.57-1.47-14.92-1.12-24.68.34-9.84,1.55-15.47,2.24-18.31,1.18-4.84,1.89-5.71,2.99-10.47,1.48-6.43,1.54-10.75,1.87-17.57.65-13.32,1.09-10.37,1.87-25.05.53-10.03.89-16.89.75-25.42-.42-24.87-4.54-28.02-5.24-51.21-.14-4.84-.1-9-1.87-14.58-2.17-6.85-4.77-8.56-6.73-16.45-1.18-4.78-1.4-8.87-1.49-10.84-.26-5.45-.43-8.87.37-13.46.68-3.86,1.52-5.64.38-7.48-1.3-2.08-3.34-1.33-5.61-3.73-2.63-2.78-2.62-6.67-2.62-7.48.01-2.39.76-4.09,2.25-7.48,1.6-3.65,2.39-4,2.99-6.35.54-2.19.36-3.85,0-6.73-1.19-9.51-1.75-12.61-1.87-17.2-.14-4.78.33-6.41.74-7.47,1.19-3.07,2.77-3.7,4.86-6.73,2.01-2.91,2.72-5.55,4.12-10.84.56-2.15.89-3.83,2.24-12.71,1.3-8.57,1.18-8.27,1.49-10.1,1.23-7.09,3.07-12.1,6.36-20.93,4.48-12.02,4.74-10.15,6.73-16.83,2.09-7.04.95-6.26,4.11-19.43,1.25-5.22,2.55-10,1.5-10.47-.8-.36-2.56,1.92-2.62,1.87-.07-.07,2.82-3.14,5.61-6.2l-2.81-.16c-5.66-.42-12.41-1.41-19.81-3.55-4.07-1.18-7.76-2.53-11.03-3.92v-16.45l3.18-17.95,2.06-24.67,2.61-15.7,5.61-43.36,1.96-9.91,5.14-2.62c12.65,5.1,28.29,9.86,46.54,12.15,5.61.71,10.98,1.12,16.08,1.31l2.2.33c.46-3.02.91-6.3,1.35-9.86,2.87-22.94,4.3-34.41,2.99-44.86-1.35-10.76-3.55-15.36-4.82-30.92l-1.72.14v4.98Z" fill="#1a171b" stroke-width="0"/><path d="m598.86,902.71v16.45c3.27,1.39,6.96,2.74,11.03,3.92,7.4,2.14,14.15,3.13,19.81,3.55l2.81.16c.5-.56,1.01-1.11,1.49-1.65,3.41-3.81,5.11-5.72,6.73-8.23,1.59-2.47,3.42-5.31,4.49-9.34,1.82-6.91-.63-9.66,2.24-13.83,1.35-1.97,3.49-3.67,2.99-4.49-.4-.67-2.22-.22-2.24-.37-.04-.23,4.14-.44,7.85-2.25,1.02-.49,4.86-2.44,7.1-6.73,1.83-3.5,1.66-6.8,1.5-10.09-.18-3.48-1.02-6.27-1.5-7.85-.62-2.02-1.31-3.67-1.87-4.86,0,0,2.49-5.32,2.99-6.36,2.98-6.16,8.05-10.68,9.35-11.96,1.89-1.85,6.27-7.15,10.61-36.49l-2.2-.33c-5.1-.19-10.47-.6-16.08-1.31-18.25-2.29-33.89-7.05-46.54-12.15l-5.14,2.62-1.96,9.91-5.61,43.36-2.61,15.7-2.06,24.67-3.18,17.95Z" fill="#1a171b" stroke-width="0"/><path d="m616.06,183.83c10.81-31.89,11.05-70.12-4.45-99.94-3.1-5.96-6.81-11.5-11.9-15.5-10.35-8.81-22.06-16.62-36.63-22.47-7.23-2.3-14.9-2.83-22.48-2.64-15.85.39-28.66,4.91-42.67,12.33-14.01,7.42-24.82,17.04-36.43,31.92" fill="none" stroke="#1a171b" stroke-miterlimit="10" stroke-width="2"/><path d="m549.29,191.98c.71-.17,1.34-.32,1.35-.3,0,.05-3.49,1.22-7.85,2.24-2.29.54-4.22.89-5.61,1.13" fill="none" stroke="#1a171b" stroke-miterlimit="10" stroke-width="2"/><path d="m548.31,192.22c.21-.06.44-.11.67-.16" fill="none" stroke="#1a171b" stroke-miterlimit="10" stroke-width="2"/><path d="m547.83,192.32c-.35.06-.56.09-.56.11.01.02.23-.03.56-.11Z" fill="none" stroke="#1a171b" stroke-miterlimit="10" stroke-width="2"/><path d="m547.83,192.32c.11-.02.24-.05.38-.08" fill="none" stroke="#1a171b" stroke-miterlimit="10" stroke-width="2"/><path d="m548.98,192.06c-.25.07-.47.12-.67.16-.03.01-.07.01-.1.02" fill="none" stroke="#1a171b" stroke-miterlimit="10" stroke-width="2"/><path d="m548.98,192.06s.04-.01.06-.01c.08-.03.16-.05.23-.06,0,0,.01-.01.02-.01" fill="none" stroke="#1a171b" stroke-miterlimit="10" stroke-width="2"/><path d="m541.67,141.59c2.05-1.81,3.87-3.17,5.23-4.11,2.38-1.67,3.6-2.51,5.23-2.99,2.05-.62,3.71-.52,5.98-.38,2.69.16,4.03.24,5.24,1.12.78.56,1.26,1.29,1.77,2.43.26.57.52,1.25.84,2.06s1.04,2.72,1.87,6.73c.56,2.65.43,2.68,1.13,6.35.83,4.37,1.02,4.36,1.12,5.98.07,1.22.21,3.81-.75,6.73-.2.6-.58,1.65-2.62,4.86-3.62,5.72-4.48,5.69-6.35,9.35-1.05,2.04-1.22,2.92-2.62,5.23-1.18,1.94-1.84,3.05-2.99,4.11-1.79,1.67-3.94,2.5-5.46,2.92" fill="none" stroke="#1a171b" stroke-miterlimit="10" stroke-width="2"/><path d="m668.12,644.83c-.02.07-.03.14-.04.22-.28,1.32-.41,2.93-.06,4.57.51,2.38,1.82,3.86,2.62,4.86,1.86,2.37,3.11,6.32,5.6,14.21,1.64,5.16,4.31,13.76,5.99,25.79,1.3,9.4.68,11.4,1.49,21.69.01.16.03.32.04.48,1.27,15.56,3.47,20.16,4.82,30.92,1.31,10.45-.12,21.92-2.99,44.86-.44,3.56-.89,6.84-1.35,9.86-4.34,29.34-8.72,34.64-10.61,36.49-1.3,1.28-6.37,5.8-9.35,11.96-.5,1.04-2.99,6.36-2.99,6.36.56,1.19,1.25,2.84,1.87,4.86.48,1.58,1.32,4.37,1.5,7.85.16,3.29.33,6.59-1.5,10.09-2.24,4.29-6.08,6.24-7.1,6.73-3.71,1.81-7.89,2.02-7.85,2.25.02.15,1.84-.3,2.24.37.5.82-1.64,2.52-2.99,4.49-2.87,4.17-.42,6.92-2.24,13.83-1.07,4.03-2.9,6.87-4.49,9.34-1.62,2.51-3.32,4.42-6.73,8.23-.48.54-.99,1.09-1.49,1.65-2.79,3.06-5.68,6.13-5.61,6.2.06.05,1.82-2.23,2.62-1.87,1.05.47-.25,5.25-1.5,10.47-3.16,13.17-2.02,12.39-4.11,19.43-1.99,6.68-2.25,4.81-6.73,16.83-3.29,8.83-5.13,13.84-6.36,20.93-.31,1.83-.19,1.53-1.49,10.1-1.35,8.88-1.68,10.56-2.24,12.71-1.4,5.29-2.11,7.93-4.12,10.84-2.09,3.03-3.67,3.66-4.86,6.73-.41,1.06-.88,2.69-.74,7.47.12,4.59.68,7.69,1.87,17.2.36,2.88.54,4.54,0,6.73-.6,2.35-1.39,2.7-2.99,6.35-1.49,3.39-2.24,5.09-2.25,7.48,0,.81,0,4.7,2.62,7.48,2.27,2.4,4.31,1.65,5.61,3.73,1.14,1.84.3,3.62-.38,7.48-.8,4.59-.63,8.01-.37,13.46.09,1.97.31,6.06,1.49,10.84,1.96,7.89,4.56,9.6,6.73,16.45,1.77,5.58,1.73,9.74,1.87,14.58.7,23.19,4.82,26.34,5.24,51.21.14,8.53-.22,15.39-.75,25.42-.78,14.68-1.22,11.73-1.87,25.05-.33,6.82-.39,11.14-1.87,17.57-1.1,4.76-1.81,5.63-2.99,10.47-.69,2.84-1.9,8.47-2.24,18.31-.35,9.76.41,16.11,1.12,24.68,2.03,24.71,3.05,37.07,1.87,47.47-.78,6.81.29,13.71.37,20.56.02,1.49.06,4.65,1.87,7.86,1.27,2.24,2.46,2.82,3.74,4.48,2.58,3.36,2.48,7.14,2.62,11.59.34,11.07,1.65,8.41,1.86,19.44.22,10.89.25,16.41-3.36,19.81-1.76,1.66-4.03,2.61-6.73,3.74-1.78.74-3.51,1.3-7.36,2.13-.71.15-1.49.32-2.36.49-3.8.76-6.49,1.2-13.08,2.24-.85.13-1.65.26-2.39.38-8.53,1.33-9.67,1.38-11.44.74-2.55-.93-4.44-2.99-8.23-7.1-5.89-6.41-5.29-7.94-8.97-10.47-4.57-3.13-6.22-1.27-10.84-4.48-4.06-2.82-3.18-4.54-8.23-9.72-4.11-4.24-5.22-3.64-11.21-8.98-2.66-2.36-5.55-4.94-8.6-8.97-2.09-2.76-5.51-7.86-7.85-14.95-1.73-5.24-.94-5.73-2.24-10.09-2.71-9.05-7.34-11.14-12.34-19.44-2.83-4.7-4.25-9.99-7.1-20.56-3.65-13.53-5.47-20.29-3.74-27.29,1.11-4.49,1.69-2.2,8.22-15.71,1.64-3.38,2.89-6.35,4.14-9.71,1.33-3.6,2.66-7.64,4.46-13.09.59-1.77,1.53-4.7,1.5-8.6-.03-4.08-1.11-7.09-1.5-8.22-1.78-5.24-2.43-11.1-3.74-22.8-.69-6.22-.71-15.86-.74-35.14-.01-2.36-.01-4.31,0-5.61" fill="none" stroke="#1a171b" stroke-miterlimit="10" stroke-width="2"/><path d="m669.1,641.88c-.16.34-.64,1.43-.97,2.91" fill="none" stroke="#1a171b" stroke-miterlimit="10" stroke-width="2"/><path d="m668.13,644.79c.24-.74.81-2.46.97-2.91,0-.03.02-.05.03-.07,0-.03.01-.04.01-.04" fill="none" stroke="#1a171b" stroke-miterlimit="10" stroke-width="2"/><path d="m668.13,644.79s-.01.04-.01.04" fill="none" stroke="#1a171b" stroke-miterlimit="10" stroke-width="2"/><path d="m668.03,645.11s.04-.14.09-.28" fill="none" stroke="#1a171b" stroke-miterlimit="10" stroke-width="2"/><path d="m616.06,229.81c3.17.53,8.61,1.38,14.58,2.77,6.32,1.48,13.24,3.57,18.69,6.58,10.69,5.89,17.22,12.55,22.43,17.94,5.85,6.05,18.2,19.12,25.42,40,3.25,9.4,4.17,16.66,5.23,25.05.82,6.42,2.53,22.68,0,45.98-2.14,19.8-6.91,36.5-16.45,69.91-.95,3.34-3.91,11.92-7.1,23.92-2.95,11.12-2.07,9.62-4.86,20.19-2.18,8.25-7.27,26.36-8.22,35.51-.42,4.01-.38,6.73-.38,6.73.07,4.22.66,4.79.38,7.48-.28,2.61-1.08,4.4-2.62,7.85-1.6,3.58-2.4,5.37-4.11,7.1-1.76,1.78-2.82,1.94-3.74,3.74-.36.71-.54,1.35-.75,5.23-.36,6.78.02,7.65.38,8.23.96,1.58,1.9,1.36,2.99,3.36.76,1.41.94,2.7,1.12,4.11.31,2.43.13,4.32,0,5.61-.67,6.59-1.42,10.02-1.12,10.09.31.09,1.4-3.76,1.49-3.73.1.03-.13,4.96-3.36,7.47-1.72,1.33-2.88.9-3.74,2.25-.84,1.31-.21,2.46.37,6.35.83,5.55-.03,6.14,1.13,7.85,1.54,2.28,3.41,1.73,4.48,4.11.59,1.31.52,2.54.37,4.86-.16,2.7-.64,2.82-.74,4.86-.04.64-.15,3.73,1.49,7.11,1.17,2.4,2.73,3.9,3.37,4.48,3.16,2.86,5.18,2.1,6.35,4.11,1.68,2.89-.69,7.46-1.06,8.14-.02.03-.03.05-.05.06-.01.02-.01.03-.01.03" fill="none" stroke="#1a171b" stroke-miterlimit="10" stroke-width="2"/><path d="m488.19,1192.71c-8.39-16.7-8.28-14.94-12.69-24.96-5.59-12.7-10.7-24.51-13.09-40.37-1-6.66-1.04-12.67-1.12-24.67-.08-12.19.32-20.81.72-27.94.64-11.24,1.27-18.78.03-30.75-.53-5.1-.78-5.06-5.23-26.92-7.89-38.72-12.12-59.71-14.51-81.27h0c-.16-1.45-.31-2.89-.45-4.34-1.11-11.26-1.49-19.6-2.24-36.26-1.09-24.19-1.23-44.45-1.12-59.06" fill="none" stroke="#1a171b" stroke-miterlimit="10" stroke-width="2"/><path d="m523.35,1274.67c-.46-4.1-1.43-10.18-3.74-17.2-3.12-9.46-6.9-15.24-10.47-21.31-5.4-9.18-4.44-9.06-12.04-25.18-1.56-3.31-3.48-7.3-5.9-12.2-1.11-2.26-2.11-4.27-3.01-6.06" fill="none" stroke="#1a171b" stroke-miterlimit="10" stroke-width="2"/><path d="m462.01,1074.77c-1.25-1.98-5.57-5.13-7.07-9.07-3.28-8.59-3.19-15.45-3.37-22.81,0,0-.34-14.13-2.24-31.4-.72-6.57-1.71-15.3-4.11-26.54-1.62-7.58-2.32-8.97-3.37-14.95-2.04-11.7-1.87-20.67-1.87-23.93,0-3.71-.18-6.83-.53-9.92-1.12-9.73-3.93-19.15-7.69-45.41-2.02-14.13-5.71-39.99-7.1-62.42-.37-5.97-.94-17.59-3.74-29.16-.37-1.51-1.52-6.11-2.99-12.71-1.17-5.22-2.05-9.51-2.62-12.34" fill="none" stroke="#1a171b" stroke-miterlimit="10" stroke-width="2"/><path d="m618.92,735.73c.09-.01.19-.03.29-.05.71-.12,1.68-.28,2.83-.45,10.55-1.61,18.01-1.7,21.68-2.24,8.27-1.23,15.89-2.79,22.81-4.49l7.47-2.24,5.24-1.5,2.8-2.99v-4.98" fill="none" stroke="#1a171b" stroke-miterlimit="10" stroke-width="2"/><path d="m676.62,707.57c-14.05,3.42-25.24,7.86-33.27,11.59-9.92,4.59-15.04,6.96-21.31,11.96-2.15,1.71-3.72,3.16-5.25,4.55-2.25,2.02-4.42,3.91-8.21,6.29-4.94,3.09-8.96,4.7-14.95,7.1-7.54,3.02-13.48,4.7-19.44,6.36-7.48,2.08-11.22,3.12-15.7,3.74-6.67.91-12.42.83-19.07.74-4.14-.05-13.57.13-16.06-.02" fill="none" stroke="#1a171b" stroke-miterlimit="10" stroke-width="2"/><path d="m606.71,730.75c-4.26-.28-10.86-.36-18.69,1.12-9.13,1.72-15.67,4.75-19.06,6.35-26.5,12.51-36.97,17.76-45.6,21.66h0c-2.65,1.21-5.13,2.28-7.85,3.39-10.25,4.21-21.86,8.9-38.13,11.96-7.6,1.43-20.15,3.7-36.64,2.62-9.53-.63-18.03-2.22-25.31-4.14-4.83-1.28-9.12-2.7-12.82-4.09" fill="none" stroke="#1a171b" stroke-miterlimit="10" stroke-width="2"/><path d="m402.6,769.62c-.69-1.79-1.66-9.36-2.62-12.71-3.2-11.22-3.13-18.95-3.73-26.91-.88-11.51-2.89-19.76-5.99-32.53-3.36-13.85-5.14-15.93-7.85-26.16-4.74-17.9-4.8-32.29-4.86-44.12-.04-9.24.48-25.74,7.48-58.31,1.18-5.49,2.55-11.46,4.14-17.87.25-.95.49-1.92.74-2.9,4.18-16.41,9.83-35.53,17.55-56.62" fill="none" stroke="#1a171b" stroke-miterlimit="10" stroke-width="2"/><path d="m446.96,160.75c-.23.67-.55,1.56-.99,2.52-.83,1.77-1.72,2.98-2.43,3.93-2.02,2.68-3.22,3.25-6.36,6.35-2.83,2.79-4.76,4.72-6.35,7.85-1.26,2.46-1.57,4.22-1.69,5.23-.19,1.69-.45,4.06.94,5.99.95,1.31,2.34,1.96,3.74,2.61,1.03.49,1.46.52,3.73,1.5,1.66.71,2.22,1.03,2.62,1.68.6.98.43,2.08.37,2.43-.31,1.93-1.76,2.48-2.8,3.93-2.11,2.94-.88,7.3.37,11.77.49,1.72.85,2.97,1.87,4.3,1.03,1.33,1.7,1.45,2.43,2.8.26.48.4.88.94,3.93.62,3.55.56,3.77.93,4.67.43,1.06.97,2.36,2.25,3.37,1.07.85,1.72.74,2.05,1.49.33.76-.03,1.63-.75,3.37-.49,1.2-.72,1.42-1.12,2.43-.44,1.13-2.4,2.11-2.54,2.78" fill="none" stroke="#1a171b" stroke-miterlimit="10" stroke-width="2"/><path d="m446.96,160.75c.13.31.23.47.31.46.25-.02.34-1.64.19-1.68-.08-.02-.23.46-.5,1.22Z" fill="none" stroke="#1a171b" stroke-miterlimit="10" stroke-width="2"/><path d="m455.5,109.25c-.3,1.22-.78,2.97-1.5,5.05-.68,1.98-1.3,3.39-2.43,5.98-1.77,4.07-2.01,4.24-2.99,6.73-.73,1.87-1.34,3.42-1.87,5.61-.46,1.92-.63,3.36-.93,6.16-.21,1.93-.48,4.38-.56,6.73-.03.85-.04,1.69-.02,2.53.09,5.85,1.14,11.16,1.76,12.71" fill="none" stroke="#1a171b" stroke-miterlimit="10" stroke-width="2"/><path d="m389.18,551.02s0-.01,0-.01c-2.88-4-8.07-13.08-12.18-20.08-4.08-6.96-10.71-19.22-17.94-39.44-3.31-9.26-8.49-25.07-13.08-47.29-4.24-20.5-11.78-64.88-13.84-85.04-.21-2.09-.93-9.48-4.67-17.95-2.26-5.11-4.66-8.45-5.61-9.72-2-2.68-5.47-7.21-11.59-10.84-4.6-2.73-8.62-3.71-9.53-3.92-2.61-.62-3.61-.5-13.77-.69-8.76-.16-7.66-.24-11.46-.25-9.32-.01-9.28.49-12.96,0-1.63-.21-4.83-.97-11.22-2.49-5.61-1.33-5.49-1.38-7.22-1.74-6.7-1.41-8.98-.8-14.71-1.5-3.42-.41-7.93-1.77-16.94-4.49-8.45-2.54-7.63-2.61-14.21-4.48-10.1-2.88-15.15-4.32-17.2-4.24-2.37.09-5.62.54-7.72-1.49-1.54-1.48-1.71-3.55-1.75-3.99-.02-.26-.3-4.39,2.5-5.73,1.55-.75,4.36-.46,4.91-.25" fill="none" stroke="#1a171b" stroke-miterlimit="10" stroke-width="2"/><path d="m579.05,755.79c-.01,1.38-.14,3.42-.75,5.8-.73,2.82-1.75,4.58-3.74,8.41-1.28,2.47-2.48,4.99-3.74,7.47-2.73,5.39-4.14,9.93-5.98,15.89-2.76,9.01-4.84,17.96-7.66,32.53-2.11,10.9-3.53,19.21-4.11,22.61-10.38,60.94-10.73,66.72-10.84,72.71-.23,12.36.77,15.46-.75,25.05-1.67,10.52-4.31,15.76-6.17,30.47-.34,2.71-.88,7.06-1.12,12.89-.37,9.14-.81,19.85,2.43,32.15,1.38,5.26,2.55,7.42,3.36,13.27.96,6.84.51,12.07.38,13.84-2.06,27.09,7,54.48,3.74,85.42-.43,4.07-1.51,12.3,2.43,20.93,2.12,4.66,3.79,5.24,6.91,10.84,1.25,2.25,3.37,6.44,6.73,20.94,2.05,8.85,2.45,12.4,5.05,25.98,1.42,7.44,1.7,8.47,3.55,17.75,2.77,13.91,9.65,49.31,7.48,66.92-.69,5.55-2.25,10.65-2.25,10.65-1.76,5.77-3.88,9.65-4.67,11.22-5.5,10.84-2.02,18.01-6.36,40.19-.79,4.06-2.16,10.93-5.04,19.62-5.01,15.1-7.52,22.65-8.79,25.42-1.34,2.94-3.08,6.43-2.43,10.84.29,1.94.98,3.7,4.49,9.16,1.84,2.87,4.45,6.74,7.85,11.22" fill="none" stroke="#1a171b" stroke-miterlimit="10" stroke-width="2"/><path d="m488.19,1192.71h0c-1.18,8.96-1.9,18.94-1.66,23.83.3,6.28-.74,12.63,0,18.88.1.91.43,3.39-.75,5.98-.84,1.82-1.85,2.46-2.81,3.74-2.01,2.71-1.96,5.92-1.86,9.34.47,16.45.73,24.72,2.05,27.1,1.61,2.9,2.56,3.18,8.6,12.34,1.44,2.19,4.31,9.44,5.07,10.66" fill="none" stroke="#1a171b" stroke-miterlimit="10" stroke-width="2"/><path d="m480.73,1406.63c-2.59-.51-6.55-.98-11.21-.19-3.36.57-5.03,1.45-8.41,2.43-5.25,1.53-9.34,1.78-14.02,2.06-2.94.18-11.39.52-22.25-1.68-7.66-1.56-16.03-3.26-25.04-9.16-6.93-4.54-13.36-8.27-16.26-16.26-.51-1.39-.85-2.75-1.08-4.07-1.08-6.24.55-11.38,1.08-12.94,2.25-6.77,8.28-15.64,15.14-15.7,2.71-.03,3.02,1.35,8.41,2.24,3.64.6,6.35.45,10.46.19,6.24-.4,11.37-1.4,14.96-2.25,6.45-1.52,5.32-1.94,12.89-3.92,5.79-1.51,9.56-2.08,16.08-4.3,3.16-1.08,5.35-1.99,7.48-3.93,2.08-1.89,2.26-3.1,3.92-4.11,1.64-.99,4.49-1.66,9.72.38" fill="none" stroke="#1a171b" stroke-miterlimit="10" stroke-width="2"/><path d="m524.47,1175.23c-4.03-2.17-9.23-4.39-15.51-5.79-8.84-1.98-15.73-1.44-17.2-1.31-3.86.34-7.06,1.05-9.35,1.68" fill="none" stroke="#1a171b" stroke-miterlimit="10" stroke-width="2"/><path d="m682.04,801.96c-5.1-.19-10.47-.6-16.08-1.31-18.25-2.29-33.89-7.05-46.54-12.15l-5.14,2.62-1.96,9.91-5.61,43.36-2.61,15.7-2.06,24.67-3.18,17.95v16.45c3.27,1.39,6.96,2.74,11.03,3.92,7.4,2.14,14.15,3.13,19.81,3.55" fill="none" stroke="#1a171b" stroke-miterlimit="10" stroke-width="2"/><path d="m568.21,778.13l-24.86-1.22-20-1.12s-10.28-1.49-11.22-1.68c-.93-.19-8.22-2.62-8.22-2.62" fill="none" stroke="#1a171b" stroke-miterlimit="10" stroke-width="2"/><path d="m464.28,392.24v-.08s-1.87-9.64-1.87-9.64c-.48-9.19-1.9-16.32-3.17-21.31-.05-.17-.11-.57-.21-1.21-.34-2.44-1.05-8.39-2.22-18.23-.12-.96-.33-2.97.74-4.86.68-1.18,1.47-1.61,3.37-3.17,0,0,2.16-1.78,4.3-3.93,2.5-2.52,3.73-5.12,4.67-7.1,2.25-4.76,2.73-8.99,2.99-11.59.77-7.55,1-13.41,1.18-18.01.04-1.11.08-2.14.13-3.11.33-7.37.66-14.66,2.43-23.93,2.05-10.73,3.84-12.66,3.55-18.5-.09-1.78-.42-5.01,1.12-8.6.9-2.08,1.56-2.27,2.81-5.05,1.06-2.35,2.11-4.7,1.87-7.66-.1-1.17-.39-4.55-2.81-5.98-1.43-.85-2.98-.64-5.05-.37-1.18.15-3.09.42-5.04,1.68-1.82,1.17-2.74,2.59-3.93,4.48-1.59,2.55-2.37,4.67-3.17,6.92-.8,2.21-1.9,5.35-2.43,9.53-.33,2.55-.11,2.85-.57,5.98-.22,1.57-.32,1.77-1.12,5.98-.64,3.42-.97,5.13-1.12,5.99-.63,3.57-.7,4.32-1.31,5.6-.06.15-.08.17-1.49,2.99-.17.33-2.26,7.53-2.43,7.85" fill="none" stroke="#1a171b" stroke-miterlimit="10" stroke-width="2"/><path d="m461.11,283.08c-1.6-1.23-3.8-3.21-5.61-6.17-2.41-3.92-1.54-5.31-4.11-12.14-1.88-4.98-3.03-8.04-5.05-11.41-.96-1.6-2.06-3.19-2.24-5.6-.07-.86.01-1.5.07-2.06v-.02c.07-.7.1-1.28-.26-2.04-.78-1.65-2.71-2.69-4.49-2.8-1.7-.11-2.96.66-3.74,1.12-.3.19-1.68,1.04-2.8,2.81-1.11,1.74-.67,2.35-1.87,4.85-.61,1.3-1.23,2.18-2.05,3.37-.87,1.24-1.85,2.66-3.18,3.92-1.99,1.9-3.99,2.74-6.36,3.74-4.19,1.77-5.06,1.16-6.54,2.62-1.74,1.71-.81,2.81-2.62,5.79-1.62,2.69-2.68,2.31-5.79,5.99-.82.96-2.33,2.77-3.74,5.42-1.66,3.11-1.25,3.78-2.8,6.16-1.66,2.56-2.43,2.26-3.93,4.68-.47.76-1.93,3.26-2.24,6.54-.15,1.52.01,2.66,1.5,8.04,1.15,4.16,1.8,6.15,2.99,10.28,1.3,4.54,1.96,6.84,2.05,8.03.29,3.71-.54,4.97.56,7.67.77,1.88,1.44,1.92,2.43,4.48s.5,2.98,1.5,4.49c.94,1.43,1.87,1.79,2.61,3.55.17.39.42,1.06.57,2.06.96,6.49-.38,12.89-.38,12.89-1.3,6.22.23,4.53-1.12,17.76-.33,3.2-.97,7.47-2.24,15.89-1.12,7.38-1.67,10.72-2.14,13.68-.2,1.3-.39,2.52-.6,4-.08.54-.16,1.13-.25,1.76-1.08,7.82-1.67,12.06-2.06,17.94-.57,8.61-1.11,17.62,1.12,28.79.35,1.74,1.04,4.27,2.43,9.34,3.89,14.22,5.65,18.44,7.07,22.9.65,2.03,1.23,4.11,1.9,7.2,1.74,7.95,2.2,13.77,5.42,22.43.88,2.35,2.39,6.07,5.99,9.15,2.21,1.91,4.66,3.09,8.03,4.12,7.58,2.31,14.36,2.2,20.38,1.87,10.69-.6,16.31-.91,23.36-2.62,5.54-1.35,15.14-4.33,32.71-16.26,5.28-3.58,13.74-9.65,57.01-49.53,1.3-1.2,2.45-2.26,3.5-3.23,2.7-2.51,4.77-4.43,6.97-6.49,2.96-2.78,9.92-9.34,25.04-23.93,12.76-12.3,15.13-14.7,20.57-18.32,5.23-3.48,6.26-3.4,11.21-7.1,7.95-5.95,13.31-12.15,16.82-16.26,3.34-3.91,5.56-6.96,8.23-10.66,5.34-7.4,9.38-13.83,12.15-18.5" fill="none" stroke="#1a171b" stroke-miterlimit="10" stroke-width="2"/><path d="m291.43,279.51c-.76.19-1.63.4-2.62.64-1.18.28-2.53.62-4.09,1-10.21,2.53-11.04,2.82-13.96,3.24-1.23.18-2.82.4-4.76.56-1.91.17-4.16.26-6.7.19-.85-.02-1.42-.06-1.95-.11-1.35-.12-2.39-.32-7.02-.64-5.45-.37-6.59-.27-9.97-.75-1.19-.16-3.04-.52-6.73-1.24-4.33-.85-6.49-1.27-8.47-1.75-4.62-1.12-4.02-1.33-8.73-2.49-6.94-1.71-6.46-.81-9.72-1.99-.58-.21-2.28-.86-4.48-.75-1.69.08-2.63.55-2.99.75-.53.29-1.64.9-2.25,2.24-.59,1.31-.49,5.14-.38,5.59" fill="none" stroke="#1a171b" stroke-miterlimit="10" stroke-width="2"/><path d="m399.49,410.67c-6.23-11.94-12.02-26.48-15.77-34.5-6.65-14.28-10.16-21.85-14.02-32.9-3.34-9.58-2.67-9.53-5.6-17.01-1.31-3.32-5.75-14.34-14.21-27.48-4.68-7.26-7.1-10.96-11.03-13.83-6.59-4.82-13.97-6.25-17.38-6.91-4.76-.93-8.7-.94-11.4-.94-1.22,0-5.95.03-12.4,1.06-1.09.18-2.13.37-6.23,1.35" fill="none" stroke="#1a171b" stroke-miterlimit="10" stroke-width="2"/><path d="m616.06,229.81c-2.42-.3-5.94-.52-10.1,0-6.69.85-11.9,3.25-20.18,8.23-8.44,5.06-15.31,9.19-24.3,16.82-8.92,7.58-14.57,14.06-20.56,20.93-2.67,3.07-11.61,13.46-21.68,28.41-1.71,2.53-2.92,4.42-4.12,6.31-2.36,3.76-4.64,7.56-10.46,16.5-4.98,7.64-9.16,20.43-11.94,24.54" fill="none" stroke="#1a171b" stroke-miterlimit="10" stroke-width="2"/><path d="m573.07,262.71c-15.17,12.48-26.12,23.82-33.27,31.77-9.17,10.21-8.32,10.7-29.16,35.52-5.74,6.84-10.89,12.85-17.92,21.55-.01.02-.02.03-.03.05-1.08,1.33-2.19,2.72-3.36,4.19-6.56,8.24-11.14,14.27-16.08,21.69-3.79,5.7-6.84,10.78-8.98,14.68-2.66,4.82-3.93,7.86-3.54,8.12.53.35,3.02-5.09,9.35-8.04,4.07-1.9,7.75-1.83,13.27-1.68,3.49.1,9.65.31,17.57,2.8,7.03,2.21,11.42,4.97,20.19,10.47,6.82,4.28,13.16,8.26,20.56,15.14,5.47,5.09,8.96,9.38,13.64,15.14,4.66,5.74,7.03,8.68,8.6,12.34,2.97,6.92,2.8,13.61,2.19,18.08-.04.34-.09.67-.14.98" fill="none" stroke="#1a171b" stroke-miterlimit="10" stroke-width="2"/><polyline points="515.12 310.51 510.93 304.26 508.39 300.47" fill="none" stroke="#1a171b" stroke-miterlimit="10" stroke-width="2"/><path d="m510.94,304.26h-.01c-2.56,1.11-8.17,4.28-11.51,6.25-4.53,2.68-7.86,5.26-9.72,6.78-2.05,1.68-6.46,5.33-10.84,10.84-4.57,5.76-4.95,8.32-11.21,18.69-2.76,4.58-7.05,10.9-8.61,13.18" fill="none" stroke="#1a171b" stroke-miterlimit="10" stroke-width="2"/><path d="m460.73,400.28c-.7,1.97-1,7.95-3.18,11.21-2.16,3.25-3.78,4.56-6.72,8.23-1.54,1.91-3.69,4.78-5.99,8.6" fill="none" stroke="#1a171b" stroke-miterlimit="10" stroke-width="2"/><path d="m616.06,183.83c-6.06-6.65-13.83-14.46-18.07-18.57-5.67-5.49-11.52-11.12-19.94-17.69-4.12-3.22-10.4-8.17-12.93-9.91" fill="none" stroke="#1a171b" stroke-miterlimit="10" stroke-width="2"/><path d="m558.11,134.11c-7.26-4.28-22.4-12.24-33.14-17.94-2.89-1.54-6.73-3.57-11.48-5.98-3.7-1.87-7.94-3.96-12.7-6.23-12.96-6.17-20.07-10.02-30.65-13.46-2.41-.78-9.04-2.59-10.36-2.97" fill="none" stroke="#1a171b" stroke-miterlimit="10" stroke-width="2"/><path d="m511.51,112.43c-4.07.24-9.42.41-15.7.25-13.57-.36-24.21-2.14-29.91-3.24-2.43-.47-5.28-1.03-8.51-1.79-.46-.11-.93-.22-1.41-.34-4.56-1.11-9.84-2.63-15.75-4.85-10.39-3.9-16.92-6.34-22.43-10.22-1.1-.77-4.64-3.35-9.97-5.23-2.48-.88-3.69-1.63-4.75-1.63-.24,0-.48.04-.73.13-2.32.87-2.95,4.35-3.74,8.98-.52,3.09-1.17,7.08-.5,12.46.25,1.96,1.01,6.83,3.74,12.46,3.31,6.81,7.65,10.89,10.97,13.95,2.73,2.53,7.9,6.8,15.45,10.22,5.84,2.65,11.12,3.88,14.95,4.49" fill="none" stroke="#1a171b" stroke-miterlimit="10" stroke-width="2"/><path d="m461.5,87.53h-1.72l-13.32-.02c-19.08-1.81-26.91-2.74-29.65-3.24,0,0-4.66-.85-7.48-.75-.39.01-1.22.06-2.43.03-1.48-.04-1.76-.16-2.34-.09-.59.06-1.36.3-2.25,1.04-.29.25-.6.55-.92.92" fill="none" stroke="#1a171b" stroke-miterlimit="10" stroke-width="2"/><polyline points="532.69 260.09 524.1 273.92 511.76 290 508.39 300.47" fill="none" stroke="#1a171b" stroke-miterlimit="10" stroke-width="2"/><path d="m508.39,300.47c-1.6.32-6.15-.71-9.09-.88-4.01-.22-6.54-1.27-11.71-2.99-2.66-.88-8.62-2.13-13.52-3.49" fill="none" stroke="#1a171b" stroke-miterlimit="10" stroke-width="2"/><polyline points="685.47 767.63 675.75 764.76 661.54 762.89 638.86 759.95 616.68 756.91 598.86 754.36 591.26 753.18" fill="none" stroke="#1a171b" stroke-miterlimit="10" stroke-width="2"/><path d="m504.53,1397.66l-4.48,4.49-2.5,3.48-.99,5.43-1.44,5.04s-6.51,4.24-7.02,4.24-6.57-1.25-7.03,0c-.46,1.24-4.95,4.98-5.7,5.23-.74.25-5.48,3.24-6.73,3.74-1.24.5-4.98,2.49-6.23,2.74-1.24.25-8.97,3.93-8.97,3.93l-13.46,5.04-10.96,5.24s-10.97,2.24-11.96,2.49c-1,.25-8.23,2.24-8.23,2.24l-5.29,3.12c-2.48-.35-6.88-.63-11.97.93-2.78.86-7.33,2.26-10.65,6.36-3.81,4.71-3.77,10.24-3.74,14.76.01,1.45.13,5.43,1.7,10.43.71,2.28,1.72,4.77,3.16,7.33,4.05,7.22,9.32,11.13,14.58,14.95,8.54,6.21,16.17,9.03,22.24,11.22,2.72.98,16.15,5.71,34.39,6.73,3.73.2,9.23.49,16.45-.19,3.96-.37,9.1-1.42,19.26-3.36,7.84-1.51,11.76-2.26,16.26-3.37,8.02-1.98,9.87-2.95,15.7-3.92,2.33-.39,4.85-.71,13.08-1.12,14.1-.71,23.67-1.2,36.82-.94,3.92.08,5.67.17,8.6-.19,4.02-.49,12.66-1.54,18.51-7.85,2.77-2.99,4.14-6.33,4.3-6.73.26-.66.68-1.79,1.01-3.27h0c.11-.5.21-1.02.29-1.59.36-2.36.23-4.17.19-4.86-.18-2.96-.22-8.56,0-18.87" fill="none" stroke="#1a171b" stroke-miterlimit="10" stroke-width="2"/><path d="m600.73,1495.35l-6.95,5.49-9.25,3.98s-12.71,2-13.71,2h-25.17l-22.18,1.99-9.47,1.5-25.9,5.48-16.71,4.49-13.46,1.74-13.71-1.49-18.19-4.99-19.69-6.85-16.45-10.84-6.23-6.73-2.99-4.74" fill="none" stroke="#1a171b" stroke-miterlimit="10" stroke-width="2"/><polyline points="585.53 1473.92 579.05 1478.41 573.07 1484.64 569.58 1490.62 565.59 1496.85 562.85 1504.2" fill="none" stroke="#1a171b" stroke-miterlimit="10" stroke-width="2"/><polyline points="382.45 1379.75 382.46 1379.76 407.59 1398.28 422.29 1402.27 435 1405.39 451.95 1405.39 463.41 1402.15 473.63 1400.15 483.81 1399.15 495.12 1400.15" fill="none" stroke="#1a171b" stroke-miterlimit="10" stroke-width="2"/><polyline points="616.06 183.83 616.06 199.53 621.29 216.73 630.64 232.58" fill="none" stroke="#1a171b" stroke-miterlimit="10" stroke-width="2"/><path d="m469.43,135.02c-6.36-3.32-14.99-1.37-19.31,4.36" fill="none" stroke="#1a171b" stroke-miterlimit="10" stroke-width="2"/><path d="m440.52,197.36c2.14.58,4.41.31,6.57-.13,1.37-.27,2.9-.75,3.46-2.03.33-.73.24-1.57.16-2.36-.1-.95-.21-1.89-.31-2.84" fill="none" stroke="#1a171b" stroke-miterlimit="10" stroke-width="2"/><path d="m448.6,218.26c-2.09,1.28-4.19,2.56-6.29,3.84" fill="none" stroke="#1a171b" stroke-miterlimit="10" stroke-width="2"/><path d="m266,311.81c-3.07-.72-7.51-1.66-12.93-2.5-3.76-.58-5.08-.66-11.22-1.49-6.9-.94-10.35-1.41-13.45-2-1.72-.32-8.35-1.62-16.7-4.23-4-1.25-6.97-2.36-7.98-2.74-3.24-1.23-5.51-2.22-8.97-3.74-9.4-4.13-7.45-3.89-10.22-4.74-1.54-.47-2.85-.76-3.98-1.99-.7-.76-1.31-1.85-1.57-2.99-.22-1.02-.18-2.08.32-2.99.87-1.59,2.71-1.97,5.23-2.49,1.44-.3,3.46-.72,5.73,0,1.96.61,2.62,1.61,4.49,2.99.28.2.54.38.86.57.27.16.59.33,1,.53,1.04.51,2.66,1.2,5.62,2.38,4.81,1.94,8.37,3.29,12.21,4.74,7.33,2.78,7.53,2.87,8.72,3.24,3.69,1.14,3.82.91,10.22,2.74,2.87.82,3.51,1.06,4.98,1.25,2.7.33,3.94-.04,7.23,0,1.4.01,3.46.11,5.98.5" fill="none" stroke="#1a171b" stroke-miterlimit="10" stroke-width="2"/><path d="m291.45,279.51h-.02c-.21-.12-2.05-1.12-2.08-1.13-2.82-.87-5.1-1.53-6.62-1.96-3.1-.89-3.97-1.1-5.49-1.75-2.35-1.01-2.62-1.53-4.98-2.74-1.21-.62-4.02-2.04-7.73-2.74-3.42-.65-5.73-1.09-7.97.25-2.55,1.52-3.33,4.31-3.49,4.98-.21.84-.67,2.72.25,4.49.5.98,1.28,1.64,1.99,2.24.85.72,10.1,3.49,10.69,3.8" fill="none" stroke="#1a171b" stroke-miterlimit="10" stroke-width="2"/><path d="m519.61,1445.14l24.67,15.7-5.23,3.74h-7.1c-.38,0-2.62.74-3.74,0-1.12-.75-4.86-2.22-4.86-2.22l-6.73,2.55s-3.74-1.54-5.61,0c-1.87,1.53-4.86,4.52-4.86,4.52l-5.61,3.02-8.22,3.34-8.51,1.5h-9.43s-4.12,2.61-5.24,2.99c-1.12.37-7.47,2.99-7.47,2.99h-9.72s-7.11.37-8.23,0c-1.12-.38-7.47-5.24-7.47-5.24,0,0-3.69-4.86-3.9-7.1-.22-2.24.59-8.17,0-8.57s0-6.38,0-6.38l3.9-5.98,2.54-4.86,1.19-4.12" fill="none" stroke="#1a171b" stroke-miterlimit="10" stroke-width="2"/><path d="m500.17,1392.57l-9.69-3.13h-7.88s-4.86-.38-6.35,0c-1.5.37-11.59,1.48-11.59,1.48h-10.84l-19.07-11.17v-7.17l-2.66-6.32s-2.57-4.86-2.2-5.98c.37-1.13,2.2-5.61,2.2-5.61" fill="none" stroke="#1a171b" stroke-miterlimit="10" stroke-width="2"/><path d="m488.96,116.17c5.14,2.97,9.23,5.43,11.96,7.1,4.18,2.55,7.23,4.49,11.96,6.73,5.17,2.45,7.22,2.84,8.23,2.99,3.29.5,6.03.13,9.71-.37,1.86-.26,3.99-.67,8.23-1.5,1.56-.3,2.85-.56,3.74-.75" fill="none" stroke="#1a171b" stroke-miterlimit="10" stroke-width="2"/><path d="m567.46,175.61c-.6,4.49-1.7,8.03-2.62,10.46-1.46,3.87-2.7,5.54-3.36,6.36-1.54,1.89-3.11,3.02-4.11,3.74-3.92,2.79-5.91,2.49-7.85,4.86-1.23,1.48-1.68,3.11-1.87,4.11" fill="none" stroke="#1a171b" stroke-miterlimit="10" stroke-width="2"/><path d="m560.36,197.69c-.88,1.39-3.15,5.37-2.81,10.81.09,1.43.44,5.98,3.93,10.1.99,1.16,3.64,4.21,8.22,5.23.71.16,6.19,1.29,10.84-1.87,5.03-3.41,4.6-8.77,8.23-9.34.65-.11.86.04,6.35,2.61,5.76,2.7,6.29,2.9,7.48,3.74,1.39.99,3.34,2.62,5.23,5.23" fill="none" stroke="#1a171b" stroke-miterlimit="10" stroke-width="2"/><path d="m471.39,147.57c-.82-.55-3.13-1.92-6.36-1.87-3.01.05-5.15,1.31-5.98,1.87" fill="none" stroke="#1a171b" stroke-miterlimit="10" stroke-width="2"/><path d="m559.24,47.38c-2.96,1.11-6.25,2.57-9.72,4.49-6.28,3.48-10.58,7.06-12.34,8.6-4.92,4.28-7.91,8.14-10.84,11.96-2.34,3.04-4.08,5.64-11.59,17.94-3.1,5.08-5.66,9.33-7.48,12.34" fill="none" stroke="#1a171b" stroke-miterlimit="10" stroke-width="2"/><path d="m601.85,73.55c-.11,3.63-.51,8.99-1.87,15.33-2.02,9.46-5.06,15.82-7.85,22.05-3.26,7.29-7.76,17.94-12.71,31.78" fill="none" stroke="#1a171b" stroke-miterlimit="10" stroke-width="2"/><path d="m531.95,143.83c-3.38,4.23-7.9,11-10.47,20.19-.87,3.09-3.29,12.8.75,34.39,1.89,10.15,5.46,24.25,12.71,40.37" fill="none" stroke="#1a171b" stroke-miterlimit="10" stroke-width="2"/><path d="m502.04,129.63c.38,9.78-.44,18.13-1.5,24.67-1.8,11.16-2.71,16.74-6.72,22.43-4.98,7.04-9.41,6.98-18.7,15.7-5.83,5.48-9.7,10.79-11.96,14.2" fill="none" stroke="#1a171b" stroke-miterlimit="10" stroke-width="2"/><path d="m246.9,273.67c-15.54-10.39-23.01-31.44-17.51-49.3,1.45-4.71,3.99-9.46,8.39-11.66,5.83-2.91,12.79-.49,18.83,1.96,7.47,3.02,15.45,6.47,19.54,13.41,3.13,5.31,3.41,11.77,3.42,17.93,0,5.22-.22,10.78-3.16,15.09-3.88,5.68-11.31,7.57-18.12,8.59-12.09,1.82-26.51,1.34-33.79-8.48-7.56-10.2-3.18-24.78,3.16-35.78,1.24-2.15,2.57-4.3,4.41-5.97,3.05-2.75,7.23-3.92,11.33-4.27,9.43-.79,19.22,2.61,25.81,9.4,6.59,6.79,9.71,16.9,7.65,26.14-.61,2.73-1.67,5.42-3.5,7.55-3.7,4.29-9.79,5.52-15.44,5.95-4.84.37-9.7.33-14.53-.1-2.26-.2-4.59-.52-6.53-1.71-3.27-2.01-4.7-6.09-4.88-9.92-.35-7.66,3.98-15.65,11.12-18.47,7.13-2.81,16.48.8,18.9,8.07,2.42,7.28-4.09,16.29-11.7,15.37-7.7-.93-11.85-9.95-11.56-17.7.16-4.3,1.25-8.63,3.62-12.23,6.53-9.93,22.6-11.11,31.06-2.76,8.45,8.35,7.93,23.69-.52,32.04-9.88,9.76-25.85,9.14-39.44,6.26-1.38-.29-2.81-.63-3.86-1.57-1.11-1-1.58-2.5-1.95-3.95-4.03-15.49-.46-34.65,13.47-42.52,11.3-6.38,26.98-2.69,34.89,7.6s7.69,25.79.17,36.37c-6.09,8.56-16.53,13.85-27.04,13.7-2.79-.04-5.7-.49-7.93-2.16-3.88-2.91-4.48-8.36-6.23-12.88-3.29-8.51-11.43-14.93-12.83-23.94-1.29-8.33,4.21-16.93,11.99-20.16,7.78-3.23,17.16-1.44,23.88,3.65s10.9,13.08,12.35,21.38c.85,4.85.63,10.38-2.73,13.97-3.33,3.56-8.69,4.16-13.56,4.48-6.04.4-12.81.46-17.27-3.63-3.64-3.34-4.75-8.9-3.44-13.66,1.31-4.76,4.73-8.74,8.81-11.53,2.7-1.85,5.85-3.27,9.12-3.1,3.56.19,6.82,2.3,9.09,5.06,5.06,6.16,5.3,15.8.54,22.19-4.76,6.4-14.05,8.95-21.41,5.88-1.55-.65-3.01-1.52-4.28-2.63-1.89-1.66-3.3-3.85-4.03-6.26-2.78-9.12,6.24-19.25,15.75-18.55,9.51.7,16.85,10.71,15.77,20.19-.28,2.49-1.09,5-2.78,6.84-3.97,4.32-11.03,3.47-16.48,1.29-6.61-2.65-13.07-7.32-14.93-14.2-2.09-7.73,2.82-16.39,10.2-19.5s16.36-1.02,22.39,4.25c6.02,5.27,9.23,13.3,9.66,21.3.11,1.98.02,4.08-1.06,5.73-1.18,1.8-3.29,2.71-5.31,3.42-9.73,3.41-20.32,4.35-30.5,2.71-2.61-.42-5.3-1.06-7.33-2.74-1.56-1.29-2.61-3.1-3.47-4.94-5.91-12.51-3.68-29.56,7.77-37.32,4.67-3.16,10.32-4.54,15.92-5.26,6.01-.78,12.28-.84,17.96,1.28,9.79,3.65,16.5,13.89,16.7,24.34.2,10.45-5.72,20.61-14.51,26.27s-20.07,6.93-30.15,4.17c-2.97-.82-5.92-2-8.23-4.05-2.93-2.6-4.57-6.33-5.88-10.03-2.99-8.41-4.67-17.94-1.08-26.12,3.06-6.98,9.54-11.93,16.46-15.11,4.57-2.1,9.63-3.58,14.6-2.8,6.15.97,11.23,5.23,15.61,9.65,3.91,3.94,7.63,8.29,9.41,13.55,3.96,11.69-3.31,25.07-14.12,31.02s-24.06,5.74-36.06,2.89c-3.86-.92-7.83-2.19-10.64-5-5-5.01-4.75-13.06-4.04-20.1,1.08-10.74,3.26-22.84,12.3-28.72,5.34-3.47,12.07-3.99,18.42-3.58,8.97.59,18.02,2.94,25.33,8.18,7.3,5.24,12.64,13.65,12.77,22.64.12,8.19-4.07,16.08-10.13,21.59-6.06,5.51-13.84,8.85-21.79,10.81-9.99,2.46-21.87,2.36-28.99-5.06-6.19-6.46-6.8-16.47-5.41-25.3,1.48-9.41,4.96-18.74,11.47-25.7s16.34-11.18,25.7-9.42c11.97,2.25,20.26,13.14,25.89,23.93,3.2,6.13,5.98,12.62,6.8,19.48.4,3.31.31,6.79-1.09,9.82-1.36,2.95-3.84,5.21-6.37,7.26-7.53,6.1-16.4,11.13-26.06,11.83-5.96.43-13.03-1.67-14.9-7.34-.76-2.29-.51-4.78-.06-7.15,2.12-11.06,8.85-21.17,18.24-27.38,4.47-2.96,9.67-5.09,15.03-5.01s10.86,2.67,13.5,7.34c3.75-6.89.63-16.38-6.1-20.41-6.73-4.03-15.96-2.71-21.89,2.42s-8.61,13.47-7.7,21.26c.6,5.14,3.08,10.54,7.84,12.57,6.93,2.95,14.69-2.63,18.59-9.07,2.81-4.64,4.58-10.49,2.38-15.45-2.89-6.51-11.54-8.61-18.39-6.69-5.31,1.49-10.22,5.1-12.31,10.21s-.82,11.67,3.64,14.93c2.47,1.81,5.58,2.48,8.25,3.99,2.66,1.51,5.01,4.5,4.1,7.42-.32,1.04-1.02,1.93-1.8,2.7-5.92,5.8-17.02,4.21-21.61-2.69-3.14-4.72-3.28-11.26-.35-16.12s8.79-7.77,14.43-7.19c4.62.47,10.23,2.73,13.23-.82,1.05-1.23,1.41-2.93,1.35-4.54-.22-5.91-6.31-10.74-12.19-10.08s-10.63,6.22-10.89,12.13,3.64,11.63,9.03,14.08c4.12,1.87,9.63,2.63,11.16,6.89,1.1,3.06-.74,6.59-3.48,8.36s-6.13,2.15-9.38,2.24c-3.74.11-7.84-.25-10.56-2.82-3.16-2.98-3.38-7.85-3.38-12.2,0-3.23.11-6.76,2.23-9.19,3.52-4.02,10.01-2.54,14.97-.56s11.12,3.98,15.19.52c3.94-3.35,2.97-10.11-.65-13.81s-8.92-5.1-13.96-6.24c-9.02-2.03-19.34-3.46-26.76,2.04-5.87,4.36-8.3,12.03-8.89,19.32-.71,8.86,1.35,18.82,8.59,23.97,6.03,4.29,14.16,4.19,21.4,2.67,13.73-2.89,27.85-12.49,28.89-26.48.53-7.13-2.46-14.06-6.15-20.18-1.7-2.82-3.63-5.61-6.38-7.42-3.25-2.13-7.27-2.66-11.14-2.92-9.18-.63-18.43-.1-27.48,1.57-5.32.98-10.87,2.53-14.54,6.5-2.93,3.15-4.28,7.45-5.14,11.66-2.56,12.53-1.04,26.8,7.82,36.03,8.02,8.36,20.49,10.96,32.05,10.32,8.01-.44,16.22-2.36,22.54-7.29,12.5-9.75,13.85-29.82,4.84-42.86-9.01-13.04-26.03-19.04-41.81-17.55-5.72.54-11.59,2.07-15.86,5.92-3.06,2.76-5.06,6.51-6.48,10.38-3.77,10.29-3.66,22.06.8,32.07s13.33,18.08,23.87,21.09c13.6,3.88,29.14-1.19,38.35-11.91,9.21-10.72,11.95-26.43,7.55-39.86-1.65-5.04-4.29-9.86-8.22-13.43-3.22-2.92-7.21-4.92-11.35-6.23-13.39-4.24-28.86-1.13-39.59,7.94s-16.35,23.81-14.39,37.72c.61,4.37,1.98,8.74,4.73,12.18,2.83,3.54,6.93,5.85,11.14,7.54,13.13,5.28,29.62,4.6,39.81-5.23,8.55-8.25,11.01-21.04,10.68-32.92-.09-3.1-.37-6.32-1.94-8.99-1.86-3.16-5.22-5.07-8.43-6.84-8.28-4.56-17.83-9.26-26.79-6.23-7.65,2.59-12.5,10.26-14.83,17.99-3.9,12.92-.83,29.53,11.32,35.37,9.85,4.73,22.52,1.04,31.73,6.91-9.76,4.27-21.53,3.62-30.76-1.71-1.53-.89-3.03-1.93-4.05-3.38-1.36-1.96-1.7-4.47-1.55-6.86.48-7.81,6.13-15.05,13.59-17.41,5.98-1.89,13.16-1.08,17.77-5.33,3.71-3.41,4.37-9.31,2.5-13.99-1.87-4.68-5.85-8.24-10.22-10.75-5.22-3-11.42-4.75-17.3-3.48-8.75,1.88-14.96,10.04-17.55,18.6-3.36,11.14-1.51,24.03,5.94,32.97,7.45,8.94,20.66,13.05,31.46,8.74,6.38-2.55,11.45-7.62,15.55-13.14,7.68-10.34,12.31-25.36,4.66-35.72-3.08-4.18-7.71-6.91-12.34-9.26-7.21-3.67-15.26-6.75-23.24-5.38-5.54.95-10.54,4.01-14.69,7.79-6.51,5.92-11.27,13.91-12.65,22.6-1.37,8.69.85,18.04,6.57,24.73,5.87,6.86,14.88,10.46,23.86,11.37s18.03-.62,26.84-2.57c7.94-1.76,16.17-4.08,22-9.74,8.61-8.37,9.58-22.84,3.65-33.28-5.93-10.44-17.62-16.84-29.56-18.19-9.79-1.11-20.29,1.1-27.65,7.65-11.97,10.64-11.59,32.09.75,42.3,8.45,7,20.69,8.38,31.17,5.12,6.13-1.91,11.96-5.45,15.43-10.85,2.34-3.64,3.51-7.95,3.76-12.27.86-14.85-10.17-29.51-24.67-32.81-14.51-3.3-30.78,5.16-36.43,18.92-5.65,13.76,0,31.21,12.65,39.05,6.5,4.03,14.28,5.59,21.92,5.68,9.52.12,19.52-2.19,26.5-8.67,10.86-10.09,11.18-28.52,2.69-40.67-8.49-12.15-23.89-18.23-38.71-18.14-4.99.03-10.09.71-14.56,2.94-6.7,3.34-11.33,9.85-14.27,16.73-5.51,12.89-5.59,28.71,2.41,40.22,8.75,12.59,25.46,17.74,40.73,16.3,4.6-.43,9.21-1.41,13.29-3.59,7.15-3.82,12.02-11.15,14.04-19s1.43-16.18-.39-24.08c-1.64-7.13-4.43-14.29-9.81-19.25-7.56-6.97-18.6-8.27-28.86-9.07-12.21-.95-26.52-.81-34.08,8.83-4.49,5.72-5.34,13.48-4.99,20.74.37,7.48,1.91,15.08,5.84,21.46,6.73,10.96,19.74,16.88,32.55,17.97,4.35.37,8.9.22,12.84-1.65,4.42-2.1,7.6-6.12,10.32-10.2,3.93-5.88,7.25-12.16,9.9-18.72,1.94-4.79,3.54-9.87,3.23-15.03-.63-10.48-8.89-18.92-17.74-24.57-7.57-4.83-16.14-8.45-25.11-8.9-8.97-.45-18.36,2.57-24.35,9.27-7.01,7.85-8.37,19.2-8.17,29.72.18,9.31,1.66,19.36,8.22,25.96,4.71,4.74,11.36,6.97,17.88,8.42,8.07,1.79,16.36,2.6,24.62,2.43,7.99-.17,17.34-2.23,20.55-9.56,1.32-3,1.32-6.4,1.3-9.68-.06-9.7-.12-19.39-.18-29.09-.05-7.42-.36-15.57-5.32-21.1-5.38-5.98-14.32-6.82-22.36-7-8.62-.2-17.61-.05-25.29,3.87-9.04,4.61-14.98,14-17.31,23.88-1.65,6.99-1.6,14.73,2.05,20.91,3.8,6.44,10.88,10.23,17.98,12.59,12.38,4.13,25.87,4.85,38.62,2.07" fill="none" stroke="#000" stroke-miterlimit="10" stroke-width="2"/><circle cx="138.01" cy="167.32" r="21.77" fill="none" stroke="#e9be3d" stroke-miterlimit="10" stroke-width="5"/><rect x="200.47" y="88.86" width="43.91" height="43.91" fill="none" stroke="#cd3825" stroke-miterlimit="10" stroke-width="5"/><polygon points="318.33 124.67 362.24 124.67 362.24 168.59 318.33 124.67" fill="none" stroke="#1b4174" stroke-miterlimit="10" stroke-width="5"/><path d="m192.17,221.32c-3.5,0-12.33-.46-21.24-6.32-10.17-6.69-14.01-16.17-15.14-19.34" fill="none" stroke="#000" stroke-miterlimit="10"/><polyline points="243.25 147.25 234.85 144.81 236.44 153.41" fill="none" stroke="#000" stroke-miterlimit="10"/><polyline points="163.16 199.97 155.54 195.66 155.1 204.4" fill="none" stroke="#000" stroke-miterlimit="10"/><path d="m235.32,145.55c3.44,2.6,14.05,11.3,17.45,26.56,1.8,8.05.92,14.93,0,19.15" fill="none" stroke="#000" stroke-miterlimit="10"/><path d="m284.66,190.46c.72-3.43,3.01-11.96,10.59-19.47,8.65-8.56,18.73-10.35,22.06-10.8" fill="none" stroke="#000" stroke-miterlimit="10"/><polyline points="311.56 166.51 317.36 159.95 308.9 157.71" fill="none" stroke="#000" stroke-miterlimit="10"/></svg>